<?xml version="1.0" standalone="no"?>
<!DOCTYPE svg PUBLIC "-//W3C//DTD SVG 20010904//EN"
 "http://www.w3.org/TR/2001/REC-SVG-20010904/DTD/svg10.dtd">
<svg version="1.0" xmlns="http://www.w3.org/2000/svg"
 width="761.000000pt" height="761.000000pt" viewBox="0 0 761.000000 761.000000"
 preserveAspectRatio="xMidYMid meet">
<metadata>
Created by potrace 1.11, written by Peter Selinger 2001-2013
</metadata>
<g transform="translate(0.000000,761.000000) scale(0.100000,-0.100000)"
fill="#000000" stroke="none">
<path d="M1799 7150 c-144 -27 -147 -30 -184 -160 l-21 -75 -59 -13 c-154 -35
-169 -47 -188 -162 l-13 -75 -67 -16 c-37 -9 -74 -22 -82 -29 -25 -20 -35 -80
-35 -202 0 -147 25 -280 90 -482 53 -163 99 -266 150 -335 35 -47 22 -45 141
-25 37 6 37 6 87 -69 30 -44 60 -77 73 -80 12 -3 53 1 91 8 38 8 75 15 81 15
7 0 32 -32 57 -71 62 -98 77 -104 198 -84 53 9 104 21 114 26 24 13 43 53 59
124 17 74 17 453 1 600 -6 54 -10 101 -8 102 4 4 290 42 361 48 28 3 122 11
210 19 88 8 207 18 264 22 l104 7 -32 -47 c-41 -60 -47 -96 -26 -176 17 -66
38 -100 61 -100 7 0 26 -16 41 -36 98 -128 119 -136 244 -99 102 31 210 55
249 55 66 0 112 46 125 126 l6 41 47 -8 c26 -4 113 -7 194 -8 116 0 148 2 158
14 7 8 37 22 67 32 42 13 66 29 103 70 26 29 56 71 67 93 l18 41 75 -6 c65 -5
295 -25 455 -40 73 -6 358 -44 361 -48 2 -1 -2 -48 -8 -102 -17 -146 -16 -526
1 -600 16 -71 35 -111 59 -124 10 -5 61 -17 114 -26 121 -20 136 -14 198 84
25 39 50 71 57 71 6 0 43 -7 81 -15 38 -7 79 -11 91 -8 13 3 43 36 73 80 56
84 38 77 160 57 34 -6 38 -4 68 37 51 69 97 172 150 335 65 202 90 335 90 482
0 122 -10 182 -35 202 -8 7 -45 20 -82 29 l-67 16 -13 75 c-19 115 -34 127
-188 162 l-59 13 -21 75 c-25 90 -39 116 -66 131 -24 12 -217 49 -260 49 -83
0 -191 -237 -269 -593 -17 -78 -33 -143 -34 -145 -2 -1 -73 6 -157 17 -160 21
-183 23 -414 46 -105 10 -142 10 -147 2 -6 -9 -10 -9 -16 0 -4 6 -43 14 -87
18 l-80 7 -22 58 c-13 31 -23 77 -23 100 0 72 -21 168 -44 202 -34 51 -115 88
-193 88 -61 0 -68 3 -130 47 l-66 47 -80 -2 c-43 -1 -87 -7 -97 -12 -14 -7
-31 -3 -68 16 -55 28 -146 41 -208 29 -27 -5 -50 -19 -75 -47 l-37 -39 -47 16
c-46 15 -51 15 -114 -6 -107 -35 -151 -79 -151 -149 0 -17 -11 -57 -25 -90
-15 -35 -25 -79 -25 -107 0 -26 -3 -71 -6 -99 l-6 -51 -87 -7 c-47 -4 -89 -13
-93 -19 -6 -9 -10 -9 -15 0 -6 8 -43 8 -148 -2 -231 -23 -254 -25 -414 -46
-84 -11 -155 -18 -157 -17 -1 2 -17 67 -34 145 -58 268 -135 475 -205 552 -44
48 -56 49 -206 21z m150 -150 c61 -32 144 -237 200 -492 l19 -88 -37 -10 c-72
-19 -117 -93 -101 -165 15 -68 91 -123 152 -110 25 6 29 4 27 -12 -1 -10 2
-27 7 -38 5 -11 9 -130 9 -265 0 -212 -2 -251 -18 -292 -29 -74 -58 -74 -106
0 -16 26 -37 66 -46 90 -10 23 -21 42 -27 42 -5 0 -7 4 -4 9 3 5 -3 34 -13 64
-92 267 -162 676 -164 957 -1 168 12 253 44 294 22 28 31 31 58 16z m3883 -21
c92 -124 24 -820 -123 -1246 -10 -30 -16 -59 -13 -64 3 -5 1 -9 -4 -9 -6 0
-17 -19 -27 -42 -9 -24 -30 -64 -46 -90 -48 -74 -77 -74 -106 0 -16 41 -18 80
-18 292 0 135 4 254 9 265 5 11 8 28 7 38 -2 16 2 18 27 12 61 -13 137 42 152
110 16 72 -29 146 -101 165 l-37 10 19 88 c44 200 95 347 151 435 47 73 75 83
110 36z m-2021 -13 c35 -30 44 -30 160 -5 69 15 104 7 121 -28 7 -14 24 -33
38 -42 l25 -15 -20 24 c-19 23 -19 23 12 -2 25 -20 48 -28 100 -33 93 -8 107
-12 134 -34 22 -17 24 -27 24 -103 1 -75 6 -116 22 -173 l6 -20 8 20 c11 29
11 -169 -1 -240 -16 -101 -25 -115 -76 -115 -53 0 -66 -16 -22 -29 l33 -9 -30
-1 c-79 -3 -104 -31 -27 -31 37 -1 43 -3 29 -11 -9 -5 -43 -9 -75 -7 l-57 3
-3 234 c-2 175 1 237 10 249 11 12 9 17 -10 30 -12 8 -22 20 -22 28 0 7 -14
22 -30 34 -28 20 -30 20 -27 3 1 -10 6 -23 10 -30 4 -6 4 -18 1 -27 -3 -9 -2
-16 4 -16 16 0 22 -38 31 -200 7 -114 6 -171 -3 -215 l-13 -60 -82 2 c-56 2
-80 -1 -75 -8 4 -7 -1 -10 -12 -7 -17 3 -20 17 -25 143 -7 135 -10 163 -22
195 -7 18 -33 157 -42 222 -6 44 -33 78 -64 78 -10 0 -9 -25 2 -36 4 -4 7 -14
7 -22 0 -8 12 -40 28 -71 27 -55 27 -59 27 -243 0 -206 -3 -219 -52 -199 -15
6 -39 11 -53 10 -14 0 -42 -1 -63 -1 -38 -1 -38 -2 -19 -21 16 -15 24 -17 40
-8 11 6 29 10 39 10 17 -1 17 -2 0 -6 -9 -2 -15 -9 -12 -14 11 -17 -65 -9 -83
9 -10 10 -26 21 -35 25 -10 4 -17 18 -17 34 -1 87 -33 330 -53 403 -21 73 -28
88 -55 103 -31 18 -31 18 -30 -5 1 -13 6 -29 11 -35 6 -9 6 -13 -1 -13 -5 0 5
-30 23 -67 38 -78 55 -177 54 -311 0 -62 -3 -81 -9 -64 -5 12 -18 22 -29 22
-11 0 -22 6 -25 13 -3 6 -5 -3 -3 -20 3 -32 2 -33 -35 -33 -21 0 -57 -5 -81
-12 -63 -16 -91 -6 -121 47 -21 36 -27 61 -31 127 -3 59 -1 71 4 43 l8 -40 3
35 c2 19 3 41 3 48 -1 6 3 12 7 12 4 0 11 28 15 63 4 34 11 82 16 106 12 52 4
64 -20 32 l-18 -24 -11 33 c-11 30 -2 70 14 70 20 0 63 -45 66 -68 l4 -27 16
35 c14 29 14 36 3 43 -25 13 -55 74 -55 109 0 34 2 36 58 57 57 22 104 21 118
0 3 -5 14 -9 24 -9 13 0 17 -5 14 -15 -9 -22 6 -19 35 8 l26 22 -22 -26 c-26
-29 -29 -39 -10 -39 7 0 24 -18 36 -40 19 -34 26 -40 44 -34 19 6 20 5 9 -8
-10 -13 -10 -17 4 -22 26 -10 46 -7 41 7 -2 6 0 22 4 34 5 13 4 25 -1 28 -5 3
-7 12 -3 20 4 11 1 13 -11 9 -12 -5 -15 -2 -10 10 7 19 -7 21 -24 4 -9 -9 -12
-8 -12 5 0 9 -7 17 -15 17 -19 0 -19 10 1 38 9 13 13 26 10 29 -3 4 2 15 11
26 27 30 119 20 164 -17z m-2280 -160 c-14 -36 -22 -33 -9 5 6 16 12 28 14 26
3 -2 0 -16 -5 -31z m79 -241 c12 -119 49 -349 76 -467 46 -205 89 -371 124
-476 22 -64 38 -118 36 -119 -5 -5 -73 149 -111 246 -124 326 -180 673 -159
978 l8 118 8 -85 c4 -47 12 -134 18 -195z m4536 -26 c-11 -286 -59 -521 -161
-790 -38 -98 -106 -251 -111 -246 -2 2 15 57 36 122 58 173 125 454 165 688
25 152 40 272 51 432 l8 100 8 -80 c5 -44 7 -146 4 -226z m53 269 c6 -18 7
-28 2 -23 -10 12 -25 55 -18 55 3 0 10 -15 16 -32z m-4853 -348 c3 -8 7 -40 9
-70 5 -74 75 -404 86 -408 5 -2 7 -8 4 -13 -7 -10 46 -192 81 -282 37 -94 22
-78 -29 33 -114 245 -177 522 -177 779 0 82 14 104 18 29 1 -29 5 -60 8 -68z
m5054 34 c0 -250 -63 -531 -177 -774 -51 -111 -66 -127 -29 -33 35 90 88 272
81 282 -3 5 -1 11 4 13 12 4 81 335 86 411 2 33 6 61 9 65 3 3 6 33 6 66 0 43
3 57 10 46 5 -8 10 -43 10 -76z m-3325 -232 c-8 -8 -25 10 -19 20 4 6 9 5 15
-3 4 -7 6 -15 4 -17z m1590 7 c-10 -15 -25 -10 -19 6 4 8 10 12 15 9 5 -3 7
-10 4 -15z m-1558 -11 c-3 -8 -6 -5 -6 6 -1 11 2 17 5 13 3 -3 4 -12 1 -19z
m1510 0 c-3 -8 -6 -5 -6 6 -1 11 2 17 5 13 3 -3 4 -12 1 -19z m-470 -134 c-3
-3 -12 -4 -19 -1 -8 3 -5 6 6 6 11 1 17 -2 13 -5z m-444 -28 c84 -16 121 -41
125 -85 6 -61 -6 -69 -34 -23 -14 23 -29 42 -35 42 -13 0 -11 -11 5 -29 8 -9
18 -32 24 -52 l10 -36 -66 -7 c-40 -4 -69 -3 -75 3 -11 11 -1 17 43 24 17 3
14 5 -12 6 -23 0 -38 6 -39 14 0 10 -2 10 -6 0 -7 -20 -23 -15 -23 6 0 23 45
61 71 61 11 0 19 5 19 10 0 13 2 13 -56 -6 -70 -24 -76 -31 -73 -83 3 -41 1
-46 -21 -52 -14 -4 -34 -7 -45 -8 -17 -1 -18 1 -5 10 11 8 1 9 -38 4 -43 -5
-53 -3 -59 10 -4 13 -8 14 -14 4 -5 -9 -12 -2 -22 22 l-15 34 -2 -40 -2 -40
-14 55 c-12 50 -12 57 5 80 10 14 28 30 39 36 12 6 30 18 39 27 32 28 167 34
276 13z m-1921 -166 c9 -17 14 -30 10 -30 -4 0 -15 14 -24 30 -9 17 -14 30
-10 30 4 0 15 -14 24 -30z m4170 0 c-9 -16 -20 -30 -24 -30 -4 0 1 13 10 30 9
16 20 30 24 30 4 0 -1 -13 -10 -30z"/>
<path d="M1902 6945 c-6 -14 -15 -62 -18 -107 l-7 -82 22 21 c13 12 30 19 42
16 11 -3 18 -8 15 -11 -3 -2 11 -23 30 -46 20 -22 60 -90 90 -151 29 -60 54
-106 54 -100 0 22 -81 265 -88 261 -4 -2 -7 8 -8 24 -1 15 -15 58 -33 96 -49
105 -77 128 -99 79z"/>
<path d="M1960 6058 c0 -17 84 -284 115 -363 39 -100 66 -138 92 -133 22 4 41
71 42 147 1 46 -1 52 -14 41 -43 -36 -92 20 -181 203 -29 62 -54 109 -54 105z
m177 -440 c-3 -7 -5 -2 -5 12 0 14 2 19 5 13 2 -7 2 -19 0 -25z"/>
<path d="M5767 6952 c-25 -27 -80 -151 -81 -182 -1 -16 -4 -26 -8 -24 -7 4
-88 -239 -88 -261 0 -6 25 40 54 100 30 61 70 129 90 151 19 23 33 44 30 46
-3 3 4 8 15 11 12 3 29 -4 42 -16 l22 -21 -7 82 c-10 121 -31 156 -69 114z"/>
<path d="M5710 5962 c-85 -183 -142 -248 -185 -212 -13 11 -15 5 -14 -41 1
-76 20 -143 42 -147 26 -5 53 33 92 133 34 88 118 355 113 361 -2 1 -23 -41
-48 -94z m-123 -344 c-3 -7 -5 -2 -5 12 0 14 2 19 5 13 2 -7 2 -19 0 -25z"/>
<path d="M3926 6868 c-29 -40 -13 -114 21 -101 11 4 14 2 9 -5 -6 -10 31 -39
39 -30 11 13 15 48 4 48 -9 0 -9 3 0 14 9 11 8 17 -3 29 -8 8 -13 17 -10 20 3
3 -4 8 -16 12 -13 4 -19 12 -16 21 8 22 -11 16 -28 -8z"/>
<path d="M4237 6710 c-3 -14 3 -26 20 -40 33 -26 42 -25 41 3 -2 27 -17 49
-29 41 -5 -3 -9 0 -9 5 0 19 -17 12 -23 -9z"/>
<path d="M1048 6143 l-78 -15 0 -2257 0 -2257 1445 -643 1445 -644 1445 644
1445 643 0 2257 0 2256 -91 17 c-50 9 -93 16 -94 14 -1 -2 -23 -90 -49 -195
l-46 -193 0 -1987 0 -1988 -1305 -581 -1305 -581 -1305 581 -1305 581 0 1985
0 1985 -47 198 c-36 154 -50 197 -62 196 -9 -1 -51 -8 -93 -16z"/>
<path d="M2723 5639 c-17 -5 -41 -21 -52 -35 -20 -25 -21 -40 -21 -229 0 -188
1 -204 20 -228 29 -36 80 -50 166 -45 117 8 144 36 144 154 l0 64 -75 0 -75 0
0 -71 c0 -62 -2 -70 -17 -67 -16 3 -18 20 -18 193 0 171 2 190 17 193 14 3 17
-6 20 -55 l3 -58 70 0 70 0 3 51 c4 72 -10 101 -60 124 -46 21 -139 25 -195 9z"/>
<path d="M4400 5375 l0 -265 75 0 75 0 0 125 0 125 55 0 55 0 0 40 0 40 -55 0
-55 0 0 60 0 59 58 3 57 3 3 38 3 37 -135 0 -136 0 0 -265z"/>
<path d="M4710 5600 l0 -40 65 0 65 0 0 40 0 40 -65 0 -65 0 0 -40z"/>
<path d="M4910 5576 c0 -25 -5 -35 -20 -39 -15 -4 -20 -14 -20 -37 0 -23 5
-33 20 -37 19 -5 20 -14 20 -164 0 -186 2 -189 102 -189 l58 0 0 35 c0 24 -5
35 -15 35 -13 0 -15 22 -15 139 0 114 3 140 15 145 9 3 15 18 15 36 0 18 -6
33 -15 36 -9 4 -15 19 -15 40 l0 34 -65 0 -65 0 0 -34z"/>
<path d="M3030 5325 l0 -215 60 0 60 0 2 172 c3 154 5 173 20 176 15 3 18 -7
20 -75 l3 -78 63 -3 62 -3 0 98 c0 122 -11 143 -74 143 -23 0 -51 -7 -62 -15
-25 -19 -34 -19 -34 0 0 12 -13 15 -60 15 l-60 0 0 -215z"/>
<path d="M3434 5526 c-58 -26 -64 -44 -64 -209 0 -143 1 -149 24 -172 53 -53
188 -55 243 -3 22 21 23 27 23 180 0 146 -2 160 -20 178 -12 12 -32 25 -46 30
-36 14 -124 12 -160 -4z m101 -201 c0 -125 -2 -140 -17 -143 -17 -3 -18 9 -18
143 0 134 1 146 18 143 15 -3 17 -18 17 -143z m-68 103 c-3 -8 -6 -5 -6 6 -1
11 2 17 5 13 3 -3 4 -12 1 -19z m0 -50 c-3 -7 -5 -2 -5 12 0 14 2 19 5 13 2
-7 2 -19 0 -25z"/>
<path d="M3774 5526 c-43 -19 -64 -53 -64 -103 0 -53 25 -84 105 -126 58 -31
60 -34 63 -74 3 -38 1 -43 -17 -43 -18 0 -21 6 -21 45 l0 45 -65 0 -65 0 0
-50 c0 -60 25 -92 86 -109 73 -20 150 -6 190 34 46 46 22 172 -36 190 -38 12
-107 64 -113 84 -3 11 1 28 8 38 19 25 39 4 39 -39 l1 -33 63 -2 62 -2 0 42
c0 51 -21 84 -66 103 -42 18 -129 17 -170 0z"/>
<path d="M4124 5529 c-50 -14 -69 -43 -69 -104 0 -64 16 -85 97 -126 32 -16
62 -38 68 -49 17 -32 9 -64 -17 -68 -21 -3 -23 1 -23 42 l0 46 -65 0 -65 0 0
-44 c0 -33 7 -52 25 -75 50 -59 193 -64 253 -9 18 18 22 32 22 79 0 71 -19 96
-105 142 -52 28 -60 36 -63 65 -2 23 2 34 13 39 22 8 35 -13 35 -54 l0 -33 60
0 60 0 0 46 c0 25 -4 53 -10 63 -22 42 -138 63 -216 40z"/>
<path d="M4710 5325 l0 -215 65 0 65 0 -2 213 -3 212 -62 3 -63 3 0 -216z"/>
<path d="M3315 5041 c-11 -5 -102 -43 -202 -85 l-181 -77 -61 -106 c-49 -84
-61 -113 -61 -148 0 -29 -5 -45 -15 -49 -11 -4 -15 -21 -15 -61 0 -43 -3 -55
-16 -55 -13 0 -15 -18 -14 -122 1 -68 1 -288 1 -490 l-1 -368 -65 0 -65 0 0
-70 0 -70 -55 0 -55 0 0 -70 0 -70 -40 0 c-36 0 -40 3 -40 25 0 30 -9 31 -89
4 -34 -12 -64 -19 -66 -17 -3 2 -6 297 -7 654 l-3 649 -160 27 c-202 34 -214
34 -308 1 l-78 -27 1 -160 c1 -89 1 -186 0 -217 l0 -56 -127 -43 c-71 -24
-152 -52 -180 -62 l-53 -19 1 -567 c0 -488 2 -561 14 -524 29 94 98 147 204
158 91 10 154 -10 211 -65 57 -55 69 -89 77 -223 l6 -98 -81 0 -80 0 -4 89
c-3 78 -6 93 -27 115 -33 35 -92 36 -126 1 l-25 -24 0 -366 0 -366 25 -24 c32
-33 84 -33 122 -1 27 23 28 28 31 135 l4 111 80 0 81 0 -6 -118 c-7 -145 -18
-182 -69 -238 l-41 -44 112 0 111 0 0 555 0 555 80 0 80 0 0 -555 0 -555 118
0 117 1 -28 20 c-15 12 -40 44 -55 73 l-27 51 0 400 0 400 30 55 c56 101 178
144 306 107 110 -32 158 -111 167 -274 l5 -103 -82 0 -81 0 0 74 c0 83 -14
132 -40 146 -30 16 -86 11 -111 -9 l-24 -19 0 -377 0 -377 24 -19 c45 -36 122
-18 141 34 5 16 10 83 10 148 l0 119 -40 0 -40 0 0 80 0 80 121 0 121 0 -4
-227 c-4 -254 -11 -285 -78 -351 l-34 -32 91 0 91 0 6 33 c7 41 166 1064 166
1071 0 4 56 6 125 6 69 0 125 -2 125 -4 0 -2 38 -250 85 -550 47 -300 85 -548
85 -551 0 -3 20 -5 45 -5 l45 0 0 555 0 555 133 0 c231 0 303 -24 348 -117 22
-44 24 -61 24 -188 0 -126 -2 -144 -23 -182 -12 -24 -36 -52 -52 -65 -17 -12
-30 -24 -30 -27 0 -3 13 -14 29 -23 17 -9 40 -36 52 -60 21 -39 24 -62 30
-243 3 -110 7 -201 8 -202 0 -2 103 -3 227 -3 l226 0 -32 26 c-17 15 -41 45
-53 68 -22 40 -22 47 -22 451 0 381 1 412 19 445 49 92 108 125 226 125 92 0
143 -18 186 -67 47 -51 58 -88 62 -205 l4 -113 -76 0 -76 0 0 63 c0 120 -29
167 -100 167 -26 0 -43 -7 -61 -26 l-24 -26 0 -365 0 -365 28 -24 c33 -28 82
-32 114 -9 30 21 43 74 43 173 l0 82 76 0 76 0 -4 -133 c-4 -147 -18 -190 -78
-241 l-32 -26 111 0 111 0 0 555 0 555 85 0 85 0 0 -555 0 -555 130 0 130 0 0
475 0 475 -90 0 -90 0 0 80 0 80 265 0 265 0 0 -80 0 -80 -90 0 -90 0 0 -475
0 -475 210 0 210 0 0 173 0 174 -104 359 c-56 197 -106 369 -110 381 -7 21 -4
22 82 25 l89 3 64 -257 c35 -142 66 -258 69 -258 3 0 34 115 69 255 l63 255
64 0 64 0 0 163 c0 113 -4 167 -12 175 -9 9 -9 12 0 12 9 0 12 47 12 180 l0
180 -425 0 -425 0 0 -154 0 -154 -26 -6 c-15 -4 -27 -6 -29 -4 -2 3 -15 469
-15 566 0 51 0 52 -30 52 l-30 0 0 103 0 103 -110 90 c-60 49 -114 89 -119 89
-5 0 -54 -44 -110 -98 l-101 -98 0 -95 0 -94 -34 0 c-30 0 -34 -4 -40 -31 -3
-17 -6 -109 -6 -204 0 -94 -3 -253 -7 -353 l-6 -181 -61 -3 c-61 -3 -61 -3
-64 -35 -3 -32 -4 -33 -53 -33 l-49 0 0 624 0 623 -187 8 c-180 6 -193 6 -303
-20 -63 -14 -123 -28 -132 -31 -16 -5 -18 -22 -18 -170 l0 -164 -33 0 c-28 0
-260 -43 -354 -65 l-23 -5 -1 -298 c-1 -163 -5 -324 -9 -357 -4 -33 -8 -48 -9
-33 -1 21 -7 29 -27 34 l-27 7 8 603 c5 435 4 604 -4 604 -7 0 -11 26 -11 70
0 56 -3 70 -15 70 -12 0 -15 15 -15 76 0 74 -1 77 -61 180 -33 57 -62 104 -62
103 -1 0 -11 -4 -22 -8z m820 -691 c3 -5 1 -10 -4 -10 -6 0 -11 5 -11 10 0 6
2 10 4 10 3 0 8 -4 11 -10z m115 -24 c0 -3 -4 -8 -10 -11 -5 -3 -10 -1 -10 4
0 6 5 11 10 11 6 0 10 -2 10 -4z m140 -166 c0 -5 -5 -10 -11 -10 -5 0 -7 5 -4
10 3 6 8 10 11 10 2 0 4 -4 4 -10z m-1270 -190 c0 -5 -2 -10 -4 -10 -3 0 -8 5
-11 10 -3 6 -1 10 4 10 6 0 11 -4 11 -10z m2135 -9 c3 -5 1 -12 -5 -16 -5 -3
-10 1 -10 9 0 18 6 21 15 7z m-2417 -151 c0 -9 -3 -7 -8 5 -5 11 -8 29 -8 40
0 16 2 15 8 -5 4 -14 8 -32 8 -40z m467 20 c3 -5 -3 -10 -15 -10 -12 0 -18 5
-15 10 3 6 10 10 15 10 5 0 12 -4 15 -10z m115 -140 c0 -5 -4 -10 -9 -10 -6 0
-13 5 -16 10 -3 6 1 10 9 10 9 0 16 -4 16 -10z m2720 -190 c0 -5 -5 -10 -11
-10 -5 0 -7 5 -4 10 3 6 8 10 11 10 2 0 4 -4 4 -10z m-4010 -40 c0 -5 -4 -10
-10 -10 -5 0 -10 5 -10 10 0 6 5 10 10 10 6 0 10 -4 10 -10z m860 -65 c0 -5
-5 -3 -10 5 -5 8 -10 20 -10 25 0 6 5 3 10 -5 5 -8 10 -19 10 -25z m-1025 5
c3 -5 1 -10 -4 -10 -6 0 -11 5 -11 10 0 6 2 10 4 10 3 0 8 -4 11 -10z m22 -26
c-3 -3 -12 -4 -19 -1 -8 3 -5 6 6 6 11 1 17 -2 13 -5z m3013 -14 c0 -5 -5 -10
-11 -10 -5 0 -7 5 -4 10 3 6 8 10 11 10 2 0 4 -4 4 -10z m857 -32 c-3 -7 -5
-2 -5 12 0 14 2 19 5 13 2 -7 2 -19 0 -25z m468 22 c3 -5 -1 -10 -9 -10 -9 0
-16 5 -16 10 0 6 4 10 9 10 6 0 13 -4 16 -10z m-4328 -15 c0 -8 -4 -12 -9 -9
-4 3 -8 9 -8 15 0 5 4 9 8 9 5 0 9 -7 9 -15z m1738 -165 c3 -5 1 -10 -4 -10
-6 0 -11 5 -11 10 0 6 2 10 4 10 3 0 8 -4 11 -10z m2135 -15 c0 -8 -4 -15 -10
-15 -5 0 -10 7 -10 15 0 8 5 15 10 15 6 0 10 -7 10 -15z m-4010 -5 c0 -5 -5
-10 -11 -10 -5 0 -7 5 -4 10 3 6 8 10 11 10 2 0 4 -4 4 -10z m575 -100 c-3 -5
-14 -10 -23 -9 -14 0 -13 2 3 9 27 11 27 11 20 0z m1012 -22 c-3 -7 -5 -2 -5
12 0 14 2 19 5 13 2 -7 2 -19 0 -25z m533 28 c0 -3 -4 -8 -10 -11 -5 -3 -10
-1 -10 4 0 6 5 11 10 11 6 0 10 -2 10 -4z m-65 -26 c3 -5 -1 -10 -10 -10 -9 0
-13 5 -10 10 3 6 8 10 10 10 2 0 7 -4 10 -10z"/>
<path d="M6267 2578 l-87 -303 0 -182 0 -183 90 0 90 0 0 485 c0 267 -1 485
-3 485 -2 0 -43 -136 -90 -302z"/>
<path d="M3690 2685 l0 -175 54 0 c44 0 61 5 83 24 27 23 28 28 31 136 5 162
-12 190 -118 190 l-50 0 0 -175z"/>
<path d="M3086 2552 c-21 -147 -40 -275 -42 -284 -5 -16 4 -18 80 -18 62 0 86
3 86 13 -1 26 -79 549 -82 553 -3 2 -22 -116 -42 -264z"/>
<path d="M3690 2130 l0 -220 88 0 87 0 -3 177 c-2 98 -8 191 -14 206 -16 41
-45 57 -105 57 l-53 0 0 -220z"/>
<path d="M3020 2093 c0 -12 -20 -135 -25 -160 -5 -23 -5 -23 130 -23 154 0
141 -12 122 110 l-12 75 -107 3 c-60 1 -108 -1 -108 -5z"/>
<path d="M1361 1998 l-1 -88 53 0 54 0 -38 40 c-22 23 -45 61 -53 88 l-15 47
0 -87z"/>
<path d="M1636 1762 c5 -5 79 -39 164 -77 85 -37 184 -81 220 -98 36 -16 187
-83 335 -149 149 -66 297 -133 330 -148 33 -15 308 -138 612 -274 l551 -247
1124 492 c618 270 1130 495 1138 500 9 5 -952 9 -2235 9 -1237 0 -2245 -4
-2239 -8z m553 -41 c-6 -18 -14 -30 -17 -27 -2 3 1 19 8 36 7 17 14 29 16 27
2 -2 -1 -18 -7 -36z m1566 -1 c3 -5 -1 -10 -10 -10 -9 0 -13 5 -10 10 3 6 8
10 10 10 2 0 7 -4 10 -10z m-1235 -10 c0 -5 -4 -10 -10 -10 -5 0 -10 5 -10 10
0 6 5 10 10 10 6 0 10 -4 10 -10z m90 -226 c0 -8 -4 -12 -10 -9 -5 3 -10 10
-10 16 0 5 5 9 10 9 6 0 10 -7 10 -16z m830 1 c0 -10 -10 -15 -30 -15 -27 0
-30 -3 -30 -30 0 -23 4 -30 20 -30 11 0 20 -7 20 -15 0 -8 -9 -15 -20 -15 -16
0 -20 -7 -20 -35 0 -32 2 -35 30 -35 20 0 30 -5 30 -15 0 -11 -12 -15 -50 -15
l-50 0 0 110 0 110 50 0 c38 0 50 -4 50 -15z m114 -1 c10 -26 7 -44 -8 -44 -7
0 -16 10 -19 22 -5 18 -8 19 -21 8 -22 -18 -20 -25 19 -69 37 -40 46 -86 23
-109 -19 -19 -66 -15 -78 7 -14 27 -13 41 5 41 8 0 15 -7 15 -15 0 -8 9 -15
20 -15 30 0 25 34 -10 70 -56 57 -49 120 14 120 22 0 36 -6 40 -16z m136 1 c0
-8 -9 -15 -20 -15 -19 0 -20 -7 -20 -95 0 -78 -3 -95 -15 -95 -12 0 -15 17
-15 95 0 88 -1 95 -20 95 -11 0 -20 7 -20 15 0 12 13 15 55 15 42 0 55 -3 55
-15z m310 -11 c14 -35 5 -62 -37 -114 l-35 -45 36 -3 c23 -2 36 -8 36 -18 0
-10 -13 -14 -51 -14 l-51 0 6 31 c3 17 20 47 37 66 22 26 29 43 27 66 -4 37
-19 42 -33 10 -5 -13 -15 -23 -22 -23 -16 0 -16 10 -3 44 8 21 16 26 45 26 29
0 37 -5 45 -26z m130 7 c13 -25 13 -141 0 -175 -8 -21 -16 -26 -44 -26 -46 0
-56 20 -56 110 0 90 10 110 55 110 24 0 38 -6 45 -19z m90 -91 c0 -91 -3 -110
-15 -110 -12 0 -15 16 -15 84 0 59 -4 86 -12 89 -9 3 -8 10 6 26 11 11 23 21
28 21 4 0 8 -49 8 -110z m138 98 c14 -14 16 -48 3 -48 -5 0 -11 7 -15 15 -10
27 -36 17 -36 -13 0 -24 4 -28 28 -27 26 0 27 -2 30 -62 3 -55 0 -63 -19 -73
-16 -9 -28 -9 -45 -1 -23 10 -24 15 -24 104 0 98 7 117 45 117 12 0 26 -5 33
-12z m-1713 -8 c3 -5 1 -10 -4 -10 -6 0 -11 5 -11 10 0 6 2 10 4 10 3 0 8 -4
11 -10z m30 0 c3 -5 1 -10 -4 -10 -6 0 -11 5 -11 10 0 6 2 10 4 10 3 0 8 -4
11 -10z m1159 -70 l31 0 -23 -18 c-19 -15 -22 -24 -16 -47 7 -28 7 -28 -16
-12 -21 14 -25 14 -47 0 -24 -16 -24 -16 -17 12 5 22 2 31 -17 46 l-24 19 31
0 c26 0 33 5 39 28 l8 27 10 -27 c9 -22 17 -28 41 -28z m816 -54 c0 -3 -4 -8
-10 -11 -5 -3 -10 -1 -10 4 0 6 5 11 10 11 6 0 10 -2 10 -4z m280 -10 c0 -3
-4 -8 -10 -11 -5 -3 -10 -1 -10 4 0 6 5 11 10 11 6 0 10 -2 10 -4z m-45 -56
c-3 -5 -10 -10 -16 -10 -5 0 -9 5 -9 10 0 6 7 10 16 10 8 0 12 -4 9 -10z
m-448 -187 c18 -37 11 -39 -11 -3 -9 17 -14 30 -9 30 4 0 14 -12 20 -27z"/>
<path d="M4072 1468 c-18 -18 -16 -142 2 -157 21 -18 36 16 36 81 0 61 -17 97
-38 76z"/>
<path d="M4310 1345 c0 -33 4 -45 15 -45 11 0 15 12 15 45 0 33 -4 45 -15 45
-11 0 -15 -12 -15 -45z"/>
</g>
</svg>
