<svg xmlns="http://www.w3.org/2000/svg" xmlns:xlink="http://www.w3.org/1999/xlink" version="1.1" x="0px" y="0px" viewBox="0 0 90 112.5" enable-background="new 0 0 90 90" xml:space="preserve"><path d="M79,50.9c-0.3-0.6-3.4-6.4-4.5-8.1c-2-3.2-5.5-5-9.9-5H42.5l-0.1-19.3c0-0.2-0.1-0.4-0.2-0.6l-5.9-8.7  c-0.2-0.5-0.7-0.8-1.2-0.8c-0.6,0-1.1,0.4-1.3,1c0,0.1,0,0.3,0,0.4l0.8,6.3L34,16.2l-2.9-6.1c-0.2-0.5-0.7-0.9-1.3-0.9  c-0.6,0-1.1,0.4-1.3,1c0,0.1,0,0.2,0,0.2l0,7.3l-11.6,4.8c-4.3,1.9-6.2,6.1-5,10.8l0,0.2c1,4.1,5.1,5.5,8.3,5.5  c0.6,0,1.2-0.1,1.8-0.2c0.6-0.1,1.8-0.6,2.8-1v36c0,4.7,3.8,8.5,8.5,8.5H34c4.7,0,8.5-3.8,8.5-8.5v-9.3h14.7V74  c0,4.7,3.8,8.5,8.5,8.5h0.7c4.7,0,8.5-3.8,8.5-8.5V51.7l2,1.3c0.2,0.1,0.5,0.2,0.8,0.2c0,0,0,0,0,0c0.5,0,1.1-0.3,1.3-0.8  C79.3,51.9,79.2,51.3,79,50.9z M72.8,43.8c0.3,0.5,0.9,1.4,1.4,2.5l-2-1.8c-0.1-0.1-0.2-0.1-0.4-0.1c-0.1,0-0.3,0.1-0.3,0.2  l-3.5,4.1l-4.5-4.2c-0.2-0.2-0.5-0.2-0.7,0l-4.2,4.2l-4.3-4.2c-0.1-0.1-0.2-0.2-0.4-0.1c-0.1,0-0.3,0.1-0.4,0.2l-3.7,4.2l-4.8-4.2  c-0.2-0.2-0.5-0.2-0.7,0l-4.3,4.2l-3.7-4.1c-0.1-0.1-0.2-0.2-0.4-0.2c-0.1,0-0.3,0-0.4,0.1l-4.3,4.2l-4.2-4.2  c-0.1-0.1-0.2-0.1-0.3-0.1v-7.2l4.2,5.3c0.1,0.1,0.2,0.2,0.4,0.2c0.2,0,0.3-0.1,0.4-0.2l4.3-5.4l3.9,4.9c0.1,0.1,0.2,0.2,0.4,0.2  c0.2,0,0.3-0.1,0.4-0.2l1.8-2.4h4.9l1.6,1.8c0.1,0.1,0.2,0.2,0.4,0.2s0.3-0.1,0.4-0.2l1.6-1.8h5l1.4,1.8c0.1,0.1,0.2,0.2,0.4,0.2  c0.2,0,0.3-0.1,0.4-0.2l1.7-1.9h4.4c0.4,0,0.8,0,1.2,0.1l1.1,1.3c0.1,0.1,0.2,0.2,0.4,0.2c0,0,0,0,0,0c0.1,0,0.3-0.1,0.4-0.2  l0.7-0.8C70.2,41,71.7,42.2,72.8,43.8z M40.5,74c0,0.6-0.1,1.1-0.2,1.7l-4.1-3.5c-0.2-0.2-0.5-0.2-0.7,0l-4.7,4.3l-3.2-4.3  c-0.1-0.1-0.2-0.2-0.4-0.2c-0.1,0-0.3,0-0.4,0.1l-0.1,0.1V65l0.3-0.5l3.3,4.5c0.1,0.1,0.2,0.2,0.4,0.2c0.1,0,0.3,0,0.4-0.1l5.1-4.8  l3.8,4.7c0.1,0.1,0.2,0.2,0.4,0.2c0,0,0.1,0,0.1,0V74z M24.9,33.8l-2.3-1.3l3.5-2.7l4.9,2.8c0.2,0.1,0.4,0.1,0.6-0.1l4.3-4.5  l4.5,3.7l0,7.1c0,0.5,0.3,0.9,0.8,1l-1,1.3l-3.9-4.9c-0.1-0.1-0.2-0.2-0.4-0.2c0,0,0,0,0,0c-0.2,0-0.3,0.1-0.4,0.2l-4.3,5.4  l-4.3-5.4c-0.1-0.1-0.2-0.2-0.4-0.2h-0.1c-0.1-0.1-0.2-0.2-0.3-0.3c-0.3-0.2-0.6-0.2-0.9-0.1c-0.1,0.1-0.3,0.1-0.5,0.2l0.3-1.3  C25.2,34.1,25.1,33.9,24.9,33.8z M22.4,28.8L20,27l0.1-0.8l5.7-3l5.2,3.1c0.2,0.1,0.4,0.1,0.6-0.1l5.7-5.3l3.2,2.3l0,7l-4.2-3.4  c-0.2-0.2-0.5-0.1-0.7,0l-4.4,4.6l-4.9-2.7c-0.2-0.1-0.4-0.1-0.6,0l-3.4,2.7l0.2-2.2C22.6,29.1,22.6,28.9,22.4,28.8z M48.7,39.7h1.3  l-0.7,0.8L48.7,39.7z M57.7,39.7h1.2l-0.7,0.7L57.7,39.7z M38.6,16l-1.8,0.5l-0.5-4L38.6,16z M32.4,17.6l-1.9,0.5l0-4.6L32.4,17.6z   M29.8,19.3l9.4-2.4l1.3,1.9l0,3.3l-2.9-2.1c-0.2-0.1-0.5-0.1-0.6,0l-5.7,5.3l-5.1-3c-0.1-0.1-0.3-0.1-0.5,0L20.3,25l0-0.3  c0-0.2-0.1-0.4-0.3-0.5l-0.9-0.4L29.8,19.3z M13.9,33l0-0.2c-0.5-2.1-0.3-4,0.5-5.5l0.4,0.2l-0.8,3c-0.1,0.3,0.1,0.5,0.3,0.6  l2.7,0.9L16.3,35c-0.1,0.2,0.1,0.5,0.3,0.6l2.6,1.1L19.1,37C16.9,36.7,14.6,35.6,13.9,33z M21.7,36.9c-0.4,0.1-0.9,0.1-1.4,0.1  c0,0,0,0-0.1,0l0.2-0.5c0.1-0.3,0-0.5-0.3-0.6l-2.7-1.1l0.7-3c0.1-0.2-0.1-0.5-0.3-0.6l-2.7-0.9l0.8-3c0.1-0.2,0-0.5-0.2-0.6  L15,26.5c0.7-0.9,1.6-1.6,2.7-2.1l0.2-0.1l1.3,0.7L19,27.2c0,0.2,0.1,0.4,0.2,0.5l2.4,1.8l-0.3,3.1c0,0,0,0,0,0l0,0c0,0,0,0,0,0  c0,0.1,0,0.2,0,0.2c0,0,0,0,0,0.1c0,0,0,0,0,0.1c0,0,0.1,0.1,0.1,0.1c0,0,0,0,0,0l2.6,1.5l-0.3,1.6C22.9,36.5,22,36.9,21.7,36.9z   M34,80.5h-0.7c-3.6,0-6.5-2.9-6.5-6.5v-0.3l0.4-0.4l3.2,4.2c0.1,0.1,0.2,0.2,0.4,0.2c0,0,0,0,0,0c0.1,0,0.2,0,0.3-0.1l4.8-4.4  l4.1,3.4C38.9,78.9,36.7,80.5,34,80.5z M41.5,62.6c-0.6,0-1,0.4-1,1V68l0,0l-3.9-4.8c-0.1-0.1-0.2-0.2-0.4-0.2c-0.1,0-0.3,0-0.4,0.1  l-5,4.8l-3.5-4.7c-0.1-0.1-0.3-0.2-0.4-0.2c-0.1,0-0.1,0-0.2,0.1v-7.4l0.1-0.3l4,4c0.2,0.2,0.5,0.2,0.7,0l4.3-4.2l3.7,4.1  c0.1,0.1,0.2,0.2,0.4,0.2c0.1,0,0.3,0,0.4-0.1l4.3-4.2l4.8,4.2c0.1,0.1,0.2,0.1,0.3,0.1c0.1,0,0.3-0.1,0.4-0.2l3.6-4.1l4.3,4.2  c0.2,0.2,0.5,0.2,0.7,0l4.2-4.2l4.5,4.2c0.1,0.1,0.2,0.1,0.4,0.1c0.1,0,0.3-0.1,0.4-0.2l3.5-4.1l1.1,1.2v11.4l-0.2,0.1l-3.9-4.8  c-0.1-0.1-0.2-0.2-0.4-0.2c-0.1,0-0.3,0-0.4,0.1l-5.1,4.8l-3.9-4.1v-0.3c0-0.6-0.4-1-1-1H41.5z M72,72.2c-0.1-0.1-0.2-0.2-0.4-0.2  c-0.1,0-0.3,0.1-0.4,0.2l-3.9,4.3l-4.1-4.3c-0.2-0.2-0.4-0.2-0.6-0.1l-3.5,1.7v-8.4l3.5,3.7c0.2,0.2,0.5,0.2,0.7,0l5.1-4.8l3.8,4.7  c0.1,0.1,0.2,0.2,0.4,0.2c0.1,0,0.2,0,0.2-0.1v3.9L72,72.2z M66.4,80.5h-0.7c-3.3,0-6-2.4-6.4-5.6l3.5-1.8l4.2,4.4  c0.1,0.1,0.2,0.2,0.4,0.2c0,0,0,0,0,0c0.1,0,0.3-0.1,0.4-0.2l3.9-4.3l1.2,1.3C72.6,77.8,69.8,80.5,66.4,80.5z M74.5,49  c-0.3-0.2-0.7-0.2-1,0c-0.3,0.2-0.5,0.5-0.5,0.9v5.2l-0.7-0.8c-0.1-0.1-0.2-0.2-0.4-0.2c-0.1,0-0.3,0.1-0.4,0.2l-3.5,4.1l-4.5-4.2  c-0.2-0.2-0.5-0.2-0.7,0l-4.2,4.2l-4.3-4.2c-0.1-0.1-0.2-0.1-0.4-0.1c-0.1,0-0.3,0.1-0.4,0.2l-3.7,4.1l-4.8-4.2  c-0.2-0.2-0.5-0.2-0.7,0l-4.3,4.2l-3.7-4.1c-0.1-0.1-0.2-0.2-0.4-0.2c-0.1,0-0.3,0-0.4,0.1l-4.3,4.2l-4.2-4.2  c-0.1-0.1-0.2-0.1-0.3-0.1v-8l0.1-0.3l4,4c0.2,0.2,0.5,0.2,0.7,0l4.3-4.2l3.7,4.1c0.1,0.1,0.2,0.2,0.4,0.2c0.1,0,0.3,0,0.4-0.1  l4.3-4.2l4.8,4.2c0.2,0.2,0.5,0.2,0.7,0l3.6-4.1l4.3,4.2c0.2,0.2,0.5,0.2,0.7,0l4.2-4.2l4.5,4.2c0.1,0.1,0.2,0.1,0.4,0.1  c0.1,0,0.3-0.1,0.4-0.2l3.6-4.1l3.7,3.2c0.3,0.5,0.5,0.9,0.7,1.3L74.5,49z"/></svg>