<svg xmlns="http://www.w3.org/2000/svg" xmlns:xlink="http://www.w3.org/1999/xlink" version="1.1" x="0px" y="0px" viewBox="0 0 32 40" enable-background="new 0 0 32 32" xml:space="preserve"><g><path d="M16.013,27.793c-0.071,0-0.144-0.016-0.21-0.046c-0.479-0.222-11.746-5.531-11.746-14.546c0-3.303,1.613-7.159,6.159-7.159   c2.953,0,4.947,1.739,5.818,3.564c0.901-1.84,2.999-3.564,6.182-3.564c4.001,0,6.159,3.688,6.159,7.159   c0,9.02-11.662,14.327-12.158,14.549C16.151,27.778,16.082,27.793,16.013,27.793z M10.216,7.042c-3.808,0-5.159,3.318-5.159,6.159   c0,7.736,9.436,12.774,10.96,13.537c1.562-0.754,11.358-5.796,11.358-13.537c0-2.985-1.809-6.159-5.159-6.159   c-3.661,0-5.686,2.706-5.686,4.576c0,0.276-0.224,0.5-0.5,0.5s-0.5-0.224-0.5-0.5C15.53,9.976,13.754,7.042,10.216,7.042z"/></g></svg>