<svg xmlns="http://www.w3.org/2000/svg" xmlns:xlink="http://www.w3.org/1999/xlink" version="1.1" x="0px" y="0px" viewBox="0 0 100 125" enable-background="new 0 0 100 100" xml:space="preserve"><path fill="#000000" d="M52.43,17.486c-4.322,0-8.587,0.546-12.7,1.625c-2.398-2.859-6.13-4.36-10.894-4.36  c-3.164,0-5.67,0.678-5.775,0.707c-0.635,0.174-1.143,0.649-1.359,1.271c-0.217,0.622-0.113,1.31,0.275,1.84  c1.779,2.426,1.581,4.395,1.308,7.121c-0.061,0.608-0.123,1.229-0.166,1.881C17.502,32.037,13.474,37.677,11.378,44H6.82  c-0.917,0-1.715,0.623-1.939,1.512c-0.043,0.17-1.049,4.225-1.049,9.235c0,5.044,1.023,8.655,1.067,8.807  C5.145,64.41,5.929,65,6.82,65h4.788C17.216,79.78,33.76,89.981,52.43,89.981c23.566,0,42.739-16.261,42.739-36.248  S75.996,17.486,52.43,17.486z M52.43,85.981c-17.258,0-33.032-9.927-37.507-23.604C14.653,61.556,13.887,61,13.021,61H8.417  c-0.262-1.363-0.586-3.588-0.586-6.253c0-2.766,0.349-5.243,0.618-6.747h4.409c0.897,0,1.685-0.597,1.926-1.461  c1.776-6.348,5.751-12.004,11.496-16.357c0.483-0.367,0.774-0.933,0.791-1.539c0.024-0.868,0.11-1.724,0.193-2.552  c0.229-2.293,0.466-4.645-0.562-7.221c0.64-0.069,1.365-0.118,2.133-0.118c4.019,0,6.847,1.253,8.407,3.724  c0.477,0.755,1.398,1.103,2.254,0.851c4.163-1.221,8.513-1.84,12.932-1.84c21.361,0,38.739,14.466,38.739,32.248  S73.791,85.981,52.43,85.981z"/><circle fill="#000000" cx="28.387" cy="43.197" r="3.417"/><path fill="#000000" d="M29.501,88.426c-0.99,0.789-2.184,1.206-3.454,1.206c-3.059,0-5.547-2.489-5.547-5.548  c0-0.564,0.083-1.119,0.249-1.65c0.328-1.055-0.261-2.176-1.316-2.503c-1.056-0.329-2.176,0.261-2.504,1.316  c-0.285,0.916-0.429,1.871-0.429,2.838c0,5.265,4.283,9.548,9.547,9.548c2.154,0,4.266-0.738,5.947-2.078  c0.864-0.688,1.006-1.947,0.317-2.811C31.623,87.879,30.365,87.737,29.501,88.426z"/><path fill="#000000" d="M84.805,79.93c-1.055,0.328-1.644,1.45-1.315,2.504c0.166,0.531,0.249,1.086,0.249,1.65  c0,3.059-2.488,5.548-5.547,5.548c-1.27,0-2.464-0.417-3.454-1.206c-0.864-0.688-2.122-0.547-2.811,0.317  c-0.688,0.864-0.546,2.122,0.317,2.811c1.681,1.34,3.793,2.078,5.947,2.078c5.265,0,9.547-4.283,9.547-9.548  c0-0.967-0.145-1.922-0.43-2.838C86.98,80.19,85.861,79.602,84.805,79.93z"/><path fill="#000000" d="M69.079,29.227c-0.14-0.071-3.486-1.755-8.929-2.64c-5.441-0.884-9.15-0.346-9.306-0.322  c-1.09,0.164-1.839,1.179-1.678,2.27c0.162,1.091,1.18,1.846,2.269,1.686c0.032-0.004,3.295-0.461,8.073,0.314  c4.779,0.776,7.729,2.243,7.754,2.255c0.291,0.148,0.602,0.219,0.907,0.219c0.728,0,1.43-0.399,1.784-1.092  C70.455,30.932,70.063,29.728,69.079,29.227z"/><path fill="#000000" d="M70.788,17.636c0.072,0.008,0.143,0.011,0.214,0.011c1.01,0,1.877-0.762,1.986-1.789  c0.042-0.397,0.064-0.801,0.064-1.209c0-6.242-5.079-11.32-11.321-11.32c-5.439,0-10.117,3.874-11.124,9.212  c-0.205,1.085,0.509,2.131,1.595,2.336c1.085,0.203,2.131-0.509,2.336-1.595c0.651-3.449,3.676-5.953,7.193-5.953  c4.037,0,7.321,3.284,7.321,7.32c0,0.266-0.015,0.528-0.042,0.787C68.894,16.534,69.689,17.52,70.788,17.636z"/></svg>