<svg xmlns="http://www.w3.org/2000/svg" xmlns:xlink="http://www.w3.org/1999/xlink" version="1.1" x="0px" y="0px" viewBox="0 0 90 112.5" enable-background="new 0 0 90 90" xml:space="preserve"><path d="M64.162,81H24.836C22.688,81,21,78.878,21,76.384V36.337l-7.791,1c-2.098,0.277-3.987-1.215-4.284-3.25l-3.27-12.83  c-0.269-0.966-0.14-2,0.366-2.893c0.505-0.892,1.326-1.533,2.312-1.807l27.499-8.24c0.274-0.084,0.575-0.043,0.82,0.111  c0.244,0.154,0.41,0.406,0.455,0.691c0.614,3.911,3.933,6.75,7.892,6.75c3.965,0,7.366-2.962,7.911-6.89  c0.04-0.29,0.205-0.548,0.451-0.705c0.247-0.157,0.55-0.2,0.829-0.114l27.699,8.402c2.016,0.559,3.216,2.676,2.652,4.713  l-3.265,12.811c-0.273,1.875-1.891,3.281-3.788,3.281l0,0c-0.162,0-0.33-0.01-0.494-0.031L68,36.183v40.201  C68,78.836,66.282,81,64.162,81z M22.007,34.2c0.242,0,0.474,0.088,0.657,0.248C22.879,34.639,23,34.912,23,35.2v41.184  C23,77.733,23.827,79,24.836,79h39.326C65.18,79,66,77.733,66,76.384V35.046c0-0.288,0.127-0.562,0.344-0.752  c0.215-0.189,0.502-0.275,0.788-0.24l10.12,1.3c1.019,0.131,1.924-0.596,2.051-1.587c0.006-0.04,0.013-0.08,0.023-0.119  l3.284-12.885c0.274-0.994-0.3-2.008-1.276-2.277l-26.669-8.091c-1.13,4.334-5.099,7.476-9.665,7.476  c-4.565,0-8.451-3.02-9.629-7.326L8.889,18.479c-0.492,0.137-0.886,0.443-1.128,0.871c-0.241,0.427-0.303,0.922-0.172,1.393  l3.289,12.904c0.011,0.039,0.018,0.078,0.023,0.119c0.127,0.99,1.031,1.719,2.057,1.587l8.922-1.146  C21.922,34.202,21.965,34.2,22.007,34.2z M36.354,54.99c-0.204,0-0.408-0.062-0.584-0.188c-0.401-0.289-0.531-0.827-0.307-1.268  L42.391,40h-6.064c-0.405,0-0.771-0.244-0.925-0.619s-0.067-0.806,0.221-1.091l14.657-14.529c0.339-0.335,0.864-0.386,1.257-0.123  c0.396,0.263,0.552,0.767,0.375,1.206L47.824,35h6.14c0.402,0,0.766,0.241,0.922,0.612s0.074,0.8-0.207,1.087l-17.61,17.99  C36.874,54.889,36.614,54.99,36.354,54.99z M38.756,38h5.27c0.349,0,0.672,0.182,0.854,0.479s0.195,0.667,0.037,0.978l-4.675,9.133  L51.586,37h-5.242c-0.332,0-0.643-0.165-0.829-0.44c-0.186-0.275-0.223-0.625-0.099-0.933l2.831-7.036L38.756,38z"/></svg>