<svg xmlns="http://www.w3.org/2000/svg" xmlns:xlink="http://www.w3.org/1999/xlink" version="1.1" x="0px" y="0px" viewBox="0 0 100 125" enable-background="new 0 0 100 100" xml:space="preserve"><path fill="#000000" d="M83.923,12h-5.318c0-4-4.216-7-8-7H60V2H48v3H35.604c-3.783,0-8,3-8,7h-0.112l0.541,10H20v32h9.803  l0.633,11.808c0.02,4.696,2.468,9.854,6.285,12.81c-1.317,1.021-2.258,2.575-2.49,4.267l-1.569,11.33  c-0.22,1.596,0.21,2.954,1.209,4.101c1.018,1.168,2.558,1.686,4.227,1.686h29.267c1.668,0,3.209-0.502,4.226-1.669  c1-1.146,1.429-2.573,1.209-4.171l-1.569-11.253c-0.233-1.691-1.172-3.16-2.487-4.182c3.524-2.603,5.94-6.876,5.98-11.528  l3.87-33.36l-0.022-0.167L83.923,12z M35.604,9h35c1.801,0,4,2,4,3h-43C31.604,11,33.586,9,35.604,9z M24,50V26h4.253l1.33,24H24z   M68.835,94.792c0.043,0.306,0.031,0.575-0.261,0.91C68.312,96.002,67.883,96,67.363,96H38.097c-0.521,0-0.95,0.002-1.211-0.298  c-0.293-0.335-0.304-0.688-0.262-0.991l1.568-11.424C38.354,82.115,39.528,81,40.758,81h3.151h17.287h3.505  c1.229,0,2.403,1.157,2.565,2.331L68.835,94.792z M58,31v2h16.573l-0.033,0.3l0.066-0.067L73.928,39H66v2h7.695L73,47H58v2h14.768  l-0.695,6H66v2h5.84l-0.58,5H58v2h13.028l-0.293,2.69l-0.013,0.147c0,5.458-4.451,10.163-9.526,10.163H43.909  c-5.248,0-9.474-6.198-9.474-11.33L31.718,16h47.087L75.07,31H58z"/></svg>