<svg xmlns="http://www.w3.org/2000/svg" xmlns:xlink="http://www.w3.org/1999/xlink" viewBox="0 0 24 30" version="1.1" x="0px" y="0px"><title>vegetable_002-carrot-food-root-veggie-eat</title><desc>Created with Sketch.</desc><g stroke="none" stroke-width="1" fill="none" fill-rule="evenodd"><g transform="translate(-93.000000, -45.000000)" fill="#000000"><g transform="translate(104.500000, 58.000000) rotate(45.000000) translate(-104.500000, -58.000000) translate(99.000000, 44.000000)"><path d="M6.5,10 C6.22385763,10 6,10.2238576 6,10.5 C6,10.7761424 6.22385763,11 6.5,11 L9.36858249,11 C9.64472486,11 9.86858249,10.7761424 9.86858249,10.5 C9.86858249,10.2238576 9.64472486,10 9.36858249,10 L6.5,10 Z"/><path d="M4.5,17 C4.22385763,17 4,17.2238576 4,17.5 C4,17.7761424 4.22385763,18 4.5,18 L7.36858249,18 C7.64472486,18 7.86858249,17.7761424 7.86858249,17.5 C7.86858249,17.2238576 7.64472486,17 7.36858249,17 L4.5,17 Z"/><path d="M5.5,22 C5.22385763,22 5,22.2238576 5,22.5 C5,22.7761424 5.22385763,23 5.5,23 L7.91894507,23 C8.19508745,23 8.41894507,22.7761424 8.41894507,22.5 C8.41894507,22.2238576 8.19508745,22 7.91894507,22 L5.5,22 Z"/><path d="M1.63036202,14 C1.35421964,14 1.13036202,14.2238576 1.13036202,14.5 C1.13036202,14.7761424 1.35421964,15 1.63036202,15 L3.89815855,15 C4.17430093,15 4.39815855,14.7761424 4.39815855,14.5 C4.39815855,14.2238576 4.17430093,14 3.89815855,14 L1.63036202,14 Z"/><path d="M10.5,11 C10.5,6.47924844 8.66035944,5 5.5,5 C2.33964056,5 0.5,6.47924844 0.5,11 C0.5,16.3611766 3.39802259,28 5.5,28 C7.66617015,28 10.5,16.9817522 10.5,11 Z M1.5,11 C1.5,7.0853864 2.84982117,6 5.5,6 C8.15017883,6 9.5,7.0853864 9.5,11 C9.5,16.3316828 6.75617029,27 5.5,27 C4.31490492,27 1.5,15.6949876 1.5,11 Z"/><path d="M6,0.5 C6,0.223857625 5.77614237,0 5.5,0 C5.22385763,0 5,0.223857625 5,0.5 L5,5.5 C5,5.77614237 5.22385763,6 5.5,6 C5.77614237,6 6,5.77614237 6,5.5 L6,0.5 Z"/><path d="M7.96816459,1.67556172 C8.06512465,1.41700156 7.93412188,1.12879547 7.67556172,1.03183541 C7.41700156,0.93487535 7.12879547,1.06587812 7.03183541,1.32443828 L5.53183541,5.32443828 C5.43487535,5.58299844 5.56587812,5.87120453 5.82443828,5.96816459 C6.08299844,6.06512465 6.37120453,5.93412188 6.46816459,5.67556172 L7.96816459,1.67556172 Z"/><path d="M3.96816459,1.32443828 C3.87120453,1.06587812 3.58299844,0.93487535 3.32443828,1.03183541 C3.06587812,1.12879547 2.93487535,1.41700156 3.03183541,1.67556172 L4.53183541,5.67556172 C4.62879547,5.93412188 4.91700156,6.06512465 5.17556172,5.96816459 C5.43412188,5.87120453 5.56512465,5.58299844 5.46816459,5.32443828 L3.96816459,1.32443828 Z"/></g></g></g></svg>