<svg xmlns="http://www.w3.org/2000/svg" viewBox="0 0 84.8 112.55000000000001" x="0px" y="0px"><title>Asset 30</title><g data-name="Layer 2"><g data-name="bus profile"><path d="M24.2,32.66a5.77,5.77,0,0,1,.74-.65,54.29,54.29,0,0,1,9.43-4.41c2.31-.88,4.66-1.65,7-2.4A19.28,19.28,0,0,1,44,24.75c0,1.08-1.17,1.08-1.31,2h2c-.42,1.72-2.21,1.58-3.09,2.61,1.75,0,2.23,0,2.88.41-1.79,1.91-4.38,2.44-6.39,4,1.11.37,2.16-1,3.4.13l-3,2.53c1.36.2,2.52-1,3.89-.05-.75,1.7-2.69,2-4,3.24,1.47.13,2.79-.73,4.2,0-.57,1.59-2,2.25-3.22,3.47.91.07,1.36.38,1.28,1.24,0,.38.29.79.52,1.36l.76-1c.29.23.66.39.81.66a16.69,16.69,0,0,1,1.71,3.53c1,3.77,1.76,7.58,2.58,11.39.31,1.44.55,2.89.77,4.35a2.11,2.11,0,0,0,1.37,1.75c4.79,2.17,9.55,4.42,14.36,6.55A44.79,44.79,0,0,0,68,74.25c-2.54,2.83-3.51,6.28-4,10.25A13.8,13.8,0,0,0,69.45,75c1.25,3-2.68,9.87-6.68,12.38,1-1.46.45-3.13.76-4.66A54.29,54.29,0,0,1,65.23,77,17.57,17.57,0,0,1,66,75.22a3.65,3.65,0,0,0-2.57-1.05,31.65,31.65,0,0,1-9.69-2.62c-1.14-.5-2.25-1.1-3.62-.64-.39.13-1-.26-1.44-.46-.7-.3-1.38-.63-2.19-1a41.3,41.3,0,0,1-5.39-9c-1.37-3.3-2.58-6.65-3.89-10a2.87,2.87,0,0,0-.55.46,49.37,49.37,0,0,1-6.92,6.9c-1.81,1.52-3.62,3-5.35,4.66a7.5,7.5,0,0,0-1.62,2.27c-2.13,4.58-4.19,9.2-6.29,13.79-.72,1.58-1.51,3.12-2.2,4.71a22.43,22.43,0,0,0-.65,2.21c-.15.46-.35.9-.6,1.54l1.28,1-1.39.49c.1,1.26-.43,1.85-1.56,1.51-3.9-1.16-7.75-2.46-10.28-6-.53-.74-1.28-1.43-1-2.68.79.54,1.4.13,2.07-.21s1.45-.6,2.32-.95L9.2,84.49a11.9,11.9,0,0,0,.69-1.09q2.9-6.14,5.78-12.29c1.47-3.14,3-6.27,4.39-9.43a5,5,0,0,0,.14-1.56A21.45,21.45,0,0,0,23,57.82c2.36-2.69,4.58-5.49,6.9-8.21a25.3,25.3,0,0,1,4.61-4.51A19.71,19.71,0,0,0,36.66,43l.75.32,4.06-3.05c-2.42-.17-4.3,1.33-6.48.75.27-1.43,1.51-1.51,2.31-2.06s1.81-1,2.72-1.55l-.1-.29c-.56.16-1.13.28-1.68.48-1.58.58-3.14,1.21-4.72,1.78a14.89,14.89,0,0,1-1.73.41c-.32-.94.29-1.09.72-1.33,1.75-1,3.51-1.91,5.27-2.86.22-.12.42-.29,1-.66-2.57.43-4.54,2-6.85,1.79l-.21-.46a5.77,5.77,0,0,1,1-.81c1.68-.87,3.39-1.67,5.08-2.53a38.55,38.55,0,0,0,4-2.26,21.82,21.82,0,0,0-5.51,1.76c-.88.47-1.74,1-2.59,1.51a11,11,0,0,1-4.46,1.11c-.31-.84.26-.89.67-1.07,3.37-1.49,6.74-3,10.1-4.47.8-.36,1.54-.83,2.5-1.35a1.85,1.85,0,0,0-1.82.16c-3.86,1.64-7.71,3.33-11.57,5a3.13,3.13,0,0,1-2.42.53c.25-.36.37-.72.62-.86.78-.44,1.59-.81,2.4-1.2l8.56-4a18,18,0,0,0,2.74-1.45c-2,.1-3.73,1-5.53,1.68s-3.74,1.65-5.59,2.51-3.48,1.87-5.31,2.58ZM46,65.09l.31-.11a7.06,7.06,0,0,0,0-1.33c-.61-3.14-1.15-6.3-1.93-9.4a23.76,23.76,0,0,0-3.11-7,1.14,1.14,0,0,0-1.46-.59,1.09,1.09,0,0,0-.64,1.3,15.6,15.6,0,0,0,.45,2.64,95.82,95.82,0,0,0,5.74,13.81A3.45,3.45,0,0,0,46,65.09Zm-8.1-20.48a2.14,2.14,0,0,0-2.05,1.23,41.43,41.43,0,0,1-5.35,6.81A48,48,0,0,1,23,59.36c-.66.46-.77.94-.25,1.49.72-.26,1.39-.47,2-.73a4,4,0,0,0,1.11-.59,27,27,0,0,0,2.91-2.65c1.55-1.78,3-3.69,4.48-5.51.86-1,1.62-2.24,3.23-2.27.21,0,.54-.37.59-.61C37.44,47.23,37.67,46,37.94,44.61ZM18.05,68.32a2.69,2.69,0,0,0-.35.42c-2,4-4,8-5.94,12-.56,1.16-.94,2.41-1.38,3.56l1.55,1.12a35.52,35.52,0,0,0,2.28-4.57C15.59,76.76,16.77,72.57,18.05,68.32ZM8.74,85.71c-1.28-1.12-2.64-2.35-4.06-3.5a2.1,2.1,0,0,0-1.38-.47,8.37,8.37,0,0,0-1.86.61,1.45,1.45,0,0,0,0,.3,1.91,1.91,0,0,0,.21.41,13.08,13.08,0,0,0,9,4.89A6,6,0,0,0,12,87.73l-1.67-1c-.66.07-1.08,1-1.72.4C8.47,86.91,8.68,86.33,8.74,85.71ZM21.65,65l-.28-.23a7.86,7.86,0,0,0-1.14,1.11,8.17,8.17,0,0,0-.94,1.81c-1.07,2.91-2.11,5.83-3.14,8.76-.21.58-.36,1.19-.54,1.78C18.31,74,19.87,69.45,21.65,65ZM33.81,47.28c-2.3,1.38-7.35,6.88-8,8.72C29.31,53.66,31.53,50.44,33.81,47.28ZM48.61,67.52c1.6,1.41,5.33,2.93,7.05,2.87A23.93,23.93,0,0,0,48.61,67.52ZM35.89,50.44l-.35-.32-3,3.7A8.75,8.75,0,0,0,35.89,50.44ZM22.69,61.81c-1.22.1-1.2.94-1.46,1.88C22.17,63.25,22.67,62.79,22.69,61.81Z"/><path d="M52.8,22a3,3,0,0,1-2.43.16c-1.77-.51-3.52-1.08-5.28-1.64a1.91,1.91,0,0,0-1.88,0,10.55,10.55,0,0,1-2.87.7A53.41,53.41,0,0,0,25.3,28c-1.06.66-2,1.5-3.18,2.38.41-1.87.07-3.85,2.12-4.84a1.19,1.19,0,0,0,.59-.51c.83-2.09,2.89-2.66,4.55-3.67a23.91,23.91,0,0,1,3.9-1.71,8.37,8.37,0,0,1,2.71-.5,12,12,0,0,0,4.17-1.19,1.58,1.58,0,0,1,1.43-.12c1.2.53,2.41,1,3.6,1.6a26,26,0,0,0,6.73,2.17A5.28,5.28,0,0,1,52.8,22ZM42.62,19.83v-.38a3.22,3.22,0,0,0-1.15-.25,11.46,11.46,0,0,0-2.55.67c-2.75,1.17-5.47,2.4-8.19,3.63a12.41,12.41,0,0,0-1.13.66C33.87,22.44,38.06,20.6,42.62,19.83Z"/><path d="M25.15,6.34c.23-1.13.4-2.27.7-3.38A4,4,0,0,1,29.12.09a3.37,3.37,0,0,1,3.71,1.53,13.67,13.67,0,0,1,1.63,3c1,2.89,1.85,5.85,1.31,9-.25,1.43-.52,2.91-1.84,3.89a3.09,3.09,0,0,1-3.91.11,8.29,8.29,0,0,1-2.38-2.69A20.88,20.88,0,0,1,25.15,6.34Zm2,1.47a8.85,8.85,0,0,0,1.23,4.69,10,10,0,0,0,2.16,2.65c1,.82,1.7.64,2.33-.46A11.81,11.81,0,0,0,34,11.78c.73-2.85,0-5.52-1.22-8.1a5,5,0,0,0-1.13-1.5c-1.38-1.28-2.84-1-3.61.71A12.74,12.74,0,0,0,27.12,7.81Zm5.15,9.11.13.3,1.2-.58-.15-.31Z"/><path d="M48.47,34.74c-.69.15-1.12,0-1.15-.83a5.49,5.49,0,0,1,.9-3,62.08,62.08,0,0,1,6.34-9.21c.3-.35.57-.73,1-1.28-4.84-.7-9.56-1.24-13.89-3.23l0-.41c.27-.09.6-.33.8-.25a47,47,0,0,0,13.67,2.93c1.22.1,2.45.16,3.85.24-.57,1.27-1.53.75-2.12.88C57,21.8,56.26,22.9,55.55,24c-1.87,3-3.75,6-5.53,9a28.31,28.31,0,0,0-1.63,3.75c-.24.59-.23,1.14.71,1.21l-.38,1.19A4.29,4.29,0,0,0,53.26,39c.34-.19.75-.75.69-1.06A1.76,1.76,0,0,0,53,36.85a6,6,0,0,0-1.85-.22c-.34,0-.68,0-1.12,0,1-1.21,3.3-1.4,4.23-.4,1.35,1.43,1.46,3.52-.52,5.48V40.05a6.61,6.61,0,0,1-4.47.54c-1.62-.48-2-.92-1.8-2.58a6.52,6.52,0,0,1,.94-3.3l7.32-12.79A15.85,15.85,0,0,0,54,24c-1.66,2.36-3.32,4.72-4.92,7.12A3.91,3.91,0,0,0,48.47,34.74Z"/><path d="M19.08,30.74a4.41,4.41,0,0,1-3,4.43,2,2,0,0,1-2.3-.58,4.06,4.06,0,0,1-1.1-4c.13-.45.21-.92.31-1.38a4.48,4.48,0,0,1,.23-.91,3.19,3.19,0,0,1,2.55-2.1,3.14,3.14,0,0,1,2.65,2.16C18.71,29.25,18.93,30.22,19.08,30.74ZM18,31.12A3.79,3.79,0,0,0,16.71,28,1.1,1.1,0,0,0,15,28a2.84,2.84,0,0,0-.28,4.17c.62.64,1.32,1.41,2.3,1S17.84,31.74,18,31.12Zm-3.13,2.61-.18.26.8.35.1-.21Z"/><path d="M22.36,31.77a3.79,3.79,0,0,1,.7-.69c2.78-1.57,5.53-3.22,8.39-4.66s5.7-2.61,8.58-3.83a3.3,3.3,0,0,1,2.57-.22c-.28.21-.42.37-.58.42a61,61,0,0,0-15.57,7.35c-.93.58-1.89,1.14-2.85,1.67a4.58,4.58,0,0,1-1.08.28Z"/><path d="M78.67,62.07c-.27-1.7.4-2.62,1.68-2.81s1.92.48,2.24,2.55c.08.08.14.2.22.22,2.85.88,2.33,3.53.4,4.95a11.25,11.25,0,0,1-1.79.89l-.25-.23a2.64,2.64,0,0,1,.44-.76c.52-.44,1.14-.76,1.64-1.22a1.45,1.45,0,0,0,.24-2.1c-.53-.65-1.07-.64-2,0a6.65,6.65,0,0,1-.63.32A6,6,0,0,1,81,62.83c.16-.44.46-.83.58-1.27s0-1.18-.58-1.3a2.05,2.05,0,0,0-1.39.4C79.27,60.89,79.11,61.38,78.67,62.07Z"/><path d="M42.64,80.16a2.84,2.84,0,0,1,.71.21c1.52,1.07,3.15.88,4.8.43.81-.22,1.6-.5,2.4-.72a1.14,1.14,0,0,1,.85.15c-2.45,1.48-5,2.53-7.85,1.31C43.06,81.34,42.44,81.15,42.64,80.16Z"/><path d="M41.83,76.79a23.1,23.1,0,0,0,3,.75,12.7,12.7,0,0,0,2.64-.09c.91-.09,1.81-.27,2.9-.44-.82,1.06-3.35,1.76-5.3,1.62A3.47,3.47,0,0,1,41.83,76.79Z"/><path d="M70.43,67.9c1.14-.61,2.21-1.15,3.23-1.75s1.95-1.22,3.2-2c-.17.55-.17.92-.34,1-1.51,1-3,2.06-4.6,3A1,1,0,0,1,70.43,67.9Z"/><path d="M77.51,66.55a6.46,6.46,0,0,1-3.9,2.7c-.25.06-.58-.23-1.2-.5,1.16-.47,2-.76,2.8-1.17S76.55,66.52,77.51,66.55Z"/></g></g></svg>