<svg xmlns="http://www.w3.org/2000/svg" viewBox="0 0 90.89 88.46249999999999" x="0px" y="0px"><title>Asset 13</title><g data-name="Layer 2"><g data-name="bus profile"><path d="M81.33,7.26c.06-.22.08-.52.4-.42a.72.72,0,0,0,.81-.28A3.34,3.34,0,0,1,83.31,6c.25-.15.53-.26.79-.39L84,5.46,82.72,6c-.21-.33-.61-.7-.55-.93s.5-.48.83-.58a7.44,7.44,0,0,1,4.14.08,2.63,2.63,0,0,1,1.18.77,3.66,3.66,0,0,0,1.07.8A6.37,6.37,0,0,1,90.66,7c.36.34.3.49-.14.81L89.41,6.64l-.58.53c-.11-.07-.21-.1-.25-.17a2,2,0,0,0-2-.83,5.32,5.32,0,0,1-1-.15l-.09-.2c-.31.42-.66.81-.93,1.25a2.54,2.54,0,0,1-2.47,1.19A2.47,2.47,0,0,1,81,7.79a7.2,7.2,0,0,1-1-.9,1.88,1.88,0,0,0-1.29-.5A19.47,19.47,0,0,1,76.2,6q-3-.61-5.91-1.29a12.69,12.69,0,0,1-4-1.59c-.4-.26-.71,0-1.14-.06l.14-.59c-.09,0-.19-.07-.25,0a5.19,5.19,0,0,0-1,.52c-1.14.9-2.23,1.86-3.39,2.75-1.31,1-2.65,2-4,2.93-1.61,1.13-3.22,2.24-4.88,3.3-1,.67-2.16,1.21-3.22,1.83a6.06,6.06,0,0,0-2,1.74l1.08.19c-1.28,1-1.88.86-2.4.07-.18.33-.18.33.25.82-.3.61-1.15-.19-1.51.5a4.91,4.91,0,0,0,2-.18l.27.78L43.56,19a.75.75,0,0,0,1,.4A7.3,7.3,0,0,1,47,18.89c.13.54-.18.69-.55.81-.62.2-1.24.4-1.86.62a7.9,7.9,0,0,0-.76.37c.71.25,1.11-.15,1.59-.23s1-.19,1.48-.29l.07.19-1.12.58-.68,0,.06.22.61-.26h1.07l.06.21-.75.25c-1,.32-2,.63-3,1-.38.13-.76.3-.58.93,1.38-.3,2.61-1,4.1-1a1.4,1.4,0,0,1-.33.23c-.83.28-1.68.55-2.51.83-.37.13-.73.3-1.1.45s-.6.55-.43,1.11c1.34-.14,2.51-.87,3.93-.71a4.11,4.11,0,0,1-.4.17c-1.08.34-2.17.67-3.25,1a1,1,0,0,0-.52.49,42,42,0,0,1,5.13-1,8.61,8.61,0,0,1-2.41.81,19.61,19.61,0,0,0-2.37.9c1.57-.13,3-.71,4.65-.69a8.87,8.87,0,0,1-2.69,1,26.66,26.66,0,0,0-2.62,1l.08.21,4.59-.67.06.1-1.18.42-1.27.48c-.43.15-.87.28-1.29.44a4.73,4.73,0,0,0-1.15.6c.67.2,1.2-.14,1.78-.25s1.31-.2,2-.31l1.82-.33.09.19c-.1.1-.18.24-.3.28-.73.23-1.48.42-2.21.65-.92.29-1.84.59-2.76.9-.24.08-.52.14-.42.62,1-.09,1.82-.53,2.75-.7l2.9-.52c0,.52-.29.56-.53.64-1.07.37-2.15.72-3.23,1.08l-1.62.53c-.11,0-.23,0-.26.2a9.31,9.31,0,0,0,3.06-.61,22.59,22.59,0,0,1,3.09-.55l.1.2a2.13,2.13,0,0,1-.48.31c-1.06.34-2.12.66-3.18,1a11.86,11.86,0,0,0-2.65,1l.07.18c.89-.23,1.78-.48,2.68-.68a9.2,9.2,0,0,1,2.9-.32,1.48,1.48,0,0,1-1,.65c-1.05.35-2.12.66-3.17,1-.4.13-.78.33-1.17.5-.24.1-.36.26-.14.62,1.82-.4,3.6-1,5.59-1.28-.12.57-.5.54-.76.64-1.43.55-2.87,1.07-4.3,1.61A.6.6,0,0,0,42,37a18.6,18.6,0,0,1,4.5-1c-.19.7-.83.62-1.22.86a7,7,0,0,0-1.3.8L46.75,37c-.39.63-1.06.77-1.53,1.14s-1,.67-1.5,1.05c1.44-.46,2.81-1.08,4.27-1.49l.12.23-1.78,1,0,.1,1.38-.25.11.23L46,40.19l.85.37-1.2,1,1.2.13,0,.14-1.37.57c.59.22,1-.34,1.48.2-.19.55-.69.8-1.12,1.06a1.73,1.73,0,0,0-.84,1.27,41.16,41.16,0,0,0-.51,7.42c0,.84,0,1.68,0,2.53a15.5,15.5,0,0,0,.22,1.54,1.46,1.46,0,0,1,0,.33,10.84,10.84,0,0,0-.12,1.35c0,1.1.13,2.21.22,3.32a12.11,12.11,0,0,0,.25,1.27l-.64.52a19,19,0,0,0,.9,3.93c.72-.1,1.36-.22,2-.26,1.5-.09,3-.22,4.52-.19a16,16,0,0,1,2.95.49,3.91,3.91,0,0,1,.94.51c-.22.23-.48.36-.51.55-.11.65-.6.81-1.11.87q-2.44.29-4.91.49A4.49,4.49,0,0,1,48,69.46a5,5,0,0,1-.93-.41l0-.21a1.28,1.28,0,0,1,.5-.08,13,13,0,0,0,4.94-.06c.75-.08,1.11-.47,1.08-1.33a4.73,4.73,0,0,0-.89-.17c-.87,0-1.75,0-2.61.07-1.3.07-2.59.18-4,.28A3.42,3.42,0,0,0,46,69.07c0,.48.32,1-.25,1.48a2.91,2.91,0,0,1-.36-.51,2,2,0,0,0-.62-1,1.33,1.33,0,0,1-.32-.79C44.3,67.12,44.2,66,44,64.8c-.33-1.8-.74-3.58-1.09-5.38-.22-1.09-.39-2.19-.65-3.28a72.12,72.12,0,0,0,1,8.47c-1.43-4-1.5-8.17-1.83-12.29l-1.68-.18c.25.73.91.91,1.49,1.38a3.73,3.73,0,0,1-2.82-.5c-.14.6-.29,1.14-.39,1.69q-.6,3.34-1.16,6.68c-.07.42-.08.86-.14,1.29-.11.85-.25,1.69-.35,2.54,0,.4,0,.82-.06,1.21-.1.57.37.91.58,1.35.05.11.37.16.55.16,1.51,0,3-.11,4.53-.13A8.61,8.61,0,0,1,43.5,68a1.13,1.13,0,0,1,.6.37c-1.53.22-3.1,0-4.61.28a10.73,10.73,0,0,0,3.13.31l.7,1.31a1.63,1.63,0,0,1-1.41.53A10.35,10.35,0,0,1,37,69.9c-.13-.06-.29-.17-.41-.16-.69.09-.88-.36-1-.89a9.18,9.18,0,0,1-.23-1.39,37.53,37.53,0,0,1-.17-4.27,43.09,43.09,0,0,1,1-7.24c.33-1.45.68-2.89,1-4.34a2.53,2.53,0,0,0,0-.94,14.87,14.87,0,0,0-.36-1.55,7.37,7.37,0,0,1,.83-5.81c.43-.79.87-1.57,1.34-2.34a2.57,2.57,0,0,1,1.77-1.33A.71.71,0,0,0,41,39.5s0-.1.05-.27c-.39.1-.73.2-1.07.27-.63.13-.71.07-.83-.64a6.73,6.73,0,0,1-.9.22c-.14,0-.42-.09-.44-.17a.68.68,0,0,1,.1-.53A2.06,2.06,0,0,1,38.5,38a9.49,9.49,0,0,0,1.2-.79,9.27,9.27,0,0,0-2,.66,9.93,9.93,0,0,1-1.12.41,3.17,3.17,0,0,1-.81,0c-.13-.59.21-.77.52-1,.73-.42,1.47-.82,2.21-1.24a.36.36,0,0,0,.19-.32c-.3.11-.6.23-.91.33a4.72,4.72,0,0,1-.91.22.54.54,0,0,1-.43-.21.46.46,0,0,1,.09-.45,8.26,8.26,0,0,1,.92-.58.87.87,0,0,0,.38-.35c-.3.09-.6.21-.91.27s-.58.09-.67-.24a.66.66,0,0,1,.26-.54c.44-.35.91-.64,1.34-1l-.55.19a5.86,5.86,0,0,1-1.07.29.72.72,0,0,1-.58-.27.61.61,0,0,1,.19-.56,7,7,0,0,1,.94-.56l.63-.4c-.6-.17-1.13.37-1.62-.27.63-.91,1.79-1,2.59-1.7l-.62-.1c0-.86.8-.93,1.17-1.42H37.75c.1-.28.11-.49.21-.57a1.24,1.24,0,0,0,.61-.92c0-.17.3-.31.48-.44a3.53,3.53,0,0,0,.81-.62,4.86,4.86,0,0,1-.81.08,1.84,1.84,0,0,1-.53-.21c.06-.17.07-.41.2-.51a8.46,8.46,0,0,1,1.07-.66c.32-.18.65-.32,1.1-.54l-.78-.08c-.17-.34.21-.72-.2-1a.92.92,0,0,1,.25-.46,11.31,11.31,0,0,1,1.14-.57,12.68,12.68,0,0,1-.07-1.58,1.12,1.12,0,0,1,.4-.66,8.33,8.33,0,0,1,.95-.66c-1-.85-1-.85.08-1.31a1.14,1.14,0,0,0,.45-1.56c-.25-.44-.16-.67.32-.68a6.34,6.34,0,0,0,1.08,0L44,15.14A6,6,0,0,1,44.57,14c.81-1,1.62-2.07,2.53-3,1.27-1.33,2.61-2.6,4-3.87a34.57,34.57,0,0,1,5.73-4.64A19.91,19.91,0,0,1,63.93,0a1.19,1.19,0,0,1,.35,0c1.74.23,3.5.37,5.23.71A23,23,0,0,1,78,4.65l.07.05a15.62,15.62,0,0,0,1.43,1,15.61,15.61,0,0,0,1.62.66c0,.27-.32.66.2.91.14.25.3.43.79.27ZM36.72,55.87a4.8,4.8,0,0,0,.34-.74c.18-.65.32-1.31.48-2,.07-.29.12-.59.18-.89l-.2-.06a22.93,22.93,0,0,0-.78,3.67l-.35,1.35.16,0ZM42.5,42h0c-.23-.18-.44-.48-.68-.52A2,2,0,0,0,40,43.69,2.47,2.47,0,0,1,40,45.11c0,.19-.09.37-.14.55a8.06,8.06,0,0,0,.81-1.25c.14-.23.32-.54.67-.38s.68-.12.92-.3A1,1,0,0,1,42.9,45a4.53,4.53,0,0,0-.06.95c.08,2.08.15,4.16.25,6.24.05,1.08.12,2.15.23,3.23s.26,2.24.39,3.36h.19c0-.4,0-.79,0-1.19-.07-2-.2-4.07-.22-6.1,0-1.68.06-3.36.1-5a2.54,2.54,0,0,0-.38-1.82l.74-.77-.49,0c-.25,0-.59.13-.67-.21,0-.17.18-.43.35-.58a10,10,0,0,1,1-.67c.3-.2.22-.41-.06-.64ZM45.6,14.6a13.68,13.68,0,0,0,2.17-1.1c2.17-1.62,4.24-3.38,6.44-5,2.49-1.8,5.08-3.48,7.65-5.18A3.69,3.69,0,0,0,63,2.16a.87.87,0,0,0-1-.12,19.25,19.25,0,0,0-2.68,1A33.11,33.11,0,0,0,54.69,5.8c-2.22,1.7-4.3,3.57-6.39,5.43a8.55,8.55,0,0,0-2.69,3.38c-.14.27-.28.53.06.84C46.17,15.14,45.66,14.87,45.6,14.6Zm21-12A5.76,5.76,0,0,0,68.9,3.8c1.95.55,3.9,1.07,5.86,1.53A5.43,5.43,0,0,0,77,5.49c-3-2.42-8.45-4.65-11.35-3.9C66.87,1.79,66.69,1.64,66.64,2.58Zm-3.7.9-.1-.16c-.86.46-1.76.86-2.58,1.39q-1.95,1.24-3.8,2.61c-1.84,1.36-3.64,2.78-5.45,4.18a3.13,3.13,0,0,0-.35.38l.12.14A71.13,71.13,0,0,0,62.94,3.48ZM51.65,7.69c.33-.25.66-.51,1-.74C54.33,5.79,56,4.59,57.72,3.5a35,35,0,0,1,3.18-1.56c.2-.1.52-.12.44-.49C58.61,1.25,53.77,4.86,51.65,7.69ZM41,46.4c-.4.66-.77,1.21-1.08,1.8-.61,1.13-.53,1.36.59,2.14a2.69,2.69,0,0,0,.44.21c.48-.22.47-.64.49-1,.08-1.38.18-2.76.25-4.14a3.6,3.6,0,0,0-.09-.62c-.75.27-.87.9-1.17,1.44ZM38.6,68.54l-2,.22a2.56,2.56,0,0,0,.27.27A7.8,7.8,0,0,0,42,70c.21,0,.45-.08.32-.35s-.31-.21-.48-.23c-.75-.06-1.51-.09-2.26-.12C39.07,69.32,38.69,69.18,38.6,68.54Zm2.33-32.89a9.85,9.85,0,0,0-3.83,1.94c.8-.28,1.58-.55,2.34-.83.42-.16.84-.34,1.24-.53C40.89,36.14,41.11,36,40.94,35.65Zm-.22-4.3a3.38,3.38,0,0,0-1.93.5,5.42,5.42,0,0,0-1.74,1A19.83,19.83,0,0,0,40.72,31.36ZM64,.72A2.62,2.62,0,0,0,61.91,1c-.08,0,0,.3-.07.57C62.6,1.19,63.45,1.35,64,.72ZM39.59,25.13l0,.13c.25,0,.57,0,.72.1a.49.49,0,0,0,.75,0c.24-.2.26-.46,0-.84ZM40,40.71l1.86.2c.07-.33,0-.6-.36-.69A1.57,1.57,0,0,0,40,40.71ZM37.9,34.05a11,11,0,0,0,2.85-1.2A5.94,5.94,0,0,0,37.9,34.05Zm.6,12.59c.72-.71.38-1.73.73-2.55L39.05,44Zm-.21-16.06a3.13,3.13,0,0,0,2.38-.91ZM76.52,4.42l.07-.14-2.4-1.43L74.11,3ZM37.55,48c-.16,1-.14,1.1.22,1.54C38.06,49,37.68,48.47,37.55,48Zm3.23-13.65,0-.21a1.93,1.93,0,0,0-1.34.71Zm-.3,16.78-1.1-.88A1.1,1.1,0,0,0,40.48,51.1Zm-.36-24.66c.67,0,.67,0,1-.45Zm-.78,26.42.15-.18c-.19-.26-.33-.56-.82-.46Zm3-2.1.11,0,0-1.14h-.05Zm12,16.85-.29.68C54.54,68.23,54.54,68.23,54.36,67.6Zm-12-20H42.3l0,1h0ZM64.44,2l-.13-.19-.56.39.09.14ZM42.58,52.19h-.06l0,.79h.06ZM40.25,28.56l.06.14.5-.16-.06-.15ZM71.44,1.73l0,.12.45.17,0-.07ZM36.09,59.25H36v.44a.26.26,0,0,0,.13-.21A1,1,0,0,0,36.09,59.25Z"/><path d="M3.57,2.69c.63,0,1.26.08,1.89.09s1.16-.07,1.74-.07A1.6,1.6,0,0,1,8.27,3a3.78,3.78,0,0,0,1.19.35c-.23.12-.33.22-.45.23a11.14,11.14,0,0,1-1.55.13c-2.13-.05-4.27,0-6.33-1C.67,2.58.18,2.4,0,1.7l.72.17.13-.62c.13.06.23.08.28.13.28.35.44.8,1,1A11.09,11.09,0,0,1,6.21.67a4.93,4.93,0,0,1,4.33,1,1,1,0,0,0,.65.18,49,49,0,0,1,9.8,1,41.32,41.32,0,0,1,9.4,2.77c2.14.95,4.3,1.85,6.43,2.81.63.28,1.21.67,1.81,1s1.18.75,1.81,1,1.29.45,2,.7l.2.72c-.85.28-1.6-.35-2.39-.4.19,1.2.19,1.19-1,1a50.43,50.43,0,0,1-8-2.07,45.91,45.91,0,0,1-7.59-3.53A8.8,8.8,0,0,1,22,5.49a2,2,0,0,0-1.24-.62C18.52,4.6,16.3,4.33,14.09,4c-1.19-.19-2.38-.5-3.56-.8A8.17,8.17,0,0,1,8.22,2.6c-.29-.16-.62-.16-.65-.59,0-.09-.21-.23-.33-.25a4.68,4.68,0,0,0-2.42,0c-.31.11-.66.16-.76.58,0,.13-.32.17-.5.26ZM24.09,5.06A5.05,5.05,0,0,0,24.6,6a6.34,6.34,0,0,0,1.26,1.16A29.66,29.66,0,0,0,29.28,9,39.85,39.85,0,0,0,38.5,11.7a1.71,1.71,0,0,0,1,0,5.59,5.59,0,0,0-1.68-1.16c-1.7-.82-3.4-1.66-5.14-2.38-2.46-1-5-1.95-7.44-2.9A7.24,7.24,0,0,0,24.09,5.06Zm3.25.48c2.1.87,4.21,1.71,6.3,2.61s4.08,1.84,6.12,2.77l.08-.18a14.26,14.26,0,0,0-2.52-1.52c-.63-.3-1.33-.45-2-.72C34.14,8,33,7.38,31.75,6.88A17.29,17.29,0,0,0,27.34,5.54ZM12.73,3v.19c.57.12,1.14.26,1.71.35,1.92.31,3.84.6,5.76.9a2.23,2.23,0,0,0,.61,0A.3.3,0,0,0,21,4.25.37.37,0,0,0,20.86,4a1.08,1.08,0,0,0-.42-.13c-2.15-.3-4.3-.6-6.46-.87A8,8,0,0,0,12.73,3ZM24.19,6.44,24,6.07c-.09-.16-.18-.31-.26-.47-.33-.65-.34-.66-1.17-.39A2.81,2.81,0,0,0,24.19,6.44ZM9.54,1.76a2.15,2.15,0,0,0-1.76-.58Zm13,2.79V4.41l-.79-.08c.17.15.23.24.3.25A3.45,3.45,0,0,0,22.51,4.55Z"/><path d="M44.57,12.76l-.82.9c-.37-.22-.44-.46-.29-.75S44,12.53,44.57,12.76Z"/><path d="M42.5,42l.56.69c-.2.35-.49.28-.74.11s-.22-.32-.32-.48l.53-.31Z"/></g></g></svg>