<svg xmlns="http://www.w3.org/2000/svg" xmlns:xlink="http://www.w3.org/1999/xlink" version="1.1" x="0px" y="0px" viewBox="0 0 100 125" enable-background="new 0 0 100 100" xml:space="preserve"><path d="M67.563,95H32.436c-1.194,0-2.336-0.355-3.4-1.057h-0.053l-0.479-0.324c-0.064-0.052-0.126-0.108-0.188-0.167l-0.118-0.105  c-0.097-0.083-0.19-0.166-0.281-0.258c-7.655-6.547-12.043-15.94-12.043-25.782c0-6.554,1.866-12.894,5.406-18.399  c-3.327-4.758-5.08-10.236-5.08-15.908c0-15.439,12.56-28,27.999-28h11.844c15.438,0,27.996,12.561,27.996,28  c0,5.735-1.794,11.268-5.197,16.065c3.461,5.455,5.286,11.738,5.286,18.242c0,9.833-4.385,19.223-12.033,25.773  c-0.11,0.107-0.224,0.206-0.339,0.305c-0.137,0.128-0.215,0.197-0.301,0.263l-0.39,0.296h-0.098C69.903,94.645,68.761,95,67.563,95z   M30.131,91.182l0.245,0.154c0.664,0.505,1.357,0.761,2.06,0.761h35.127c0.705,0,1.4-0.256,2.064-0.761l0.397-0.296  c0.015-0.013,0.028-0.026,0.041-0.039l0.098-0.091c7.028-6,11.06-14.603,11.06-23.604c0-6.266-1.851-12.309-5.353-17.475  l-0.585-0.864l0.633-0.831c3.412-4.474,5.216-9.709,5.216-15.137c0-13.838-11.257-25.096-25.093-25.096H44.198  C30.36,7.903,19.102,19.161,19.102,33c0,5.373,1.765,10.56,5.104,14.999l0.627,0.833l-0.59,0.86  c-3.576,5.216-5.466,11.307-5.466,17.615c0,9.014,4.037,17.621,11.075,23.618l0.119,0.113c0.04,0.043,0.083,0.077,0.127,0.114  L30.131,91.182z M68.067,41.875l-1.263-0.811c-5.076-3.258-10.889-4.98-16.806-4.98c-5.824,0-11.574,1.69-16.626,4.887l-1.273,0.805  l-0.758-1.301c-1.375-2.362-2.073-4.877-2.073-7.476c0-8.232,6.697-14.93,14.93-14.93h11.844c8.23,0,14.926,6.697,14.926,14.93  c0,2.624-0.737,5.248-2.132,7.587L68.067,41.875z M49.999,33.181c5.956,0,11.808,1.592,17.025,4.616  c0.691-1.534,1.041-3.142,1.041-4.798c0-6.632-5.394-12.026-12.022-12.026H44.198c-6.631,0-12.026,5.395-12.026,12.026  c0,1.608,0.338,3.184,1.007,4.701C38.36,34.739,44.142,33.181,49.999,33.181z"/></svg>