<svg xmlns="http://www.w3.org/2000/svg" viewBox="0 0 89.98 91.6875" x="0px" y="0px"><title>Asset 25</title><g data-name="Layer 2"><g data-name="bus profile"><path d="M77.79,59.67c1.6-.17,3-.35,4.35-.44,2-.14,4.07-.26,6.1-.3a3.24,3.24,0,0,1,1.73.73c-1.81.5-2.17,2-2.89,3.27-.18.31-.78.7-1,.61-2-.79-3.29.82-5.23,1.14,2,1.49,4.67,1.31,6.05,3.35-.45.74-.83,1.39-1.22,2-.11.18-.23.41-.4.47-1.71.58-3.4,1.47-5.15,1.6a85,85,0,0,1-9.91-.05,20,20,0,0,1-4.31-.88,5.7,5.7,0,0,1-1.49-1,20.86,20.86,0,0,1,2.27-1.6,2.91,2.91,0,0,1,1.42-.11c.7,0,1.4.2,2.1.22s.85,0,1.66-1.3c-.28-.09-.54-.27-.78-.24-1.64.25-3.29.48-4.9.88a4.07,4.07,0,0,0-1.62,1.16c-.6.59-1.08,1.31-2.2,1-.33-2,1.06-3.19,2.11-4.59l-1.27-.49a19.33,19.33,0,0,1,1.55-2,14.6,14.6,0,0,0,4.12-8.75c1-6.8.85-13.6.68-20.42,0-.91-.15-1.82-.26-2.73-.23-1.94-.24-1.94-1.64-3.36,2.07-1.95.54-3.9-.07-5.86-.18-.59-.74-1.17-.68-1.71.17-1.63-.89-2.25-2-2.85a7.17,7.17,0,0,0-2.11-.92c-1-.16-1.78-.37-1.53-1.8-1.1.78-1.87,1.4-2.72,1.87-.37.21-1.18.31-1.3.14a1.82,1.82,0,0,1-.26-1.5c.68-1.36,1.54-2.63,2.16-4.12a30.09,30.09,0,0,1-3.52,3.29,30.47,30.47,0,0,1-4.44,2.11L50.07,15c-1.19.45-1.62,3-3.61,1.5L43.62,19.3l-1.09-1.88c-1.23,1.46-1.2,3.57-3.3,4.48L37.68,19.4c-.75,1.56-.36,3.61-2,4.88l-1.25-.35c-.49.83,0,2.13-1.31,2.52-1.2-.69-1.25-2-1.43-3.11q-1-6.14-1.76-12.3a56.25,56.25,0,0,1-.31-5.67,13.08,13.08,0,0,1,.3-2.16h.44a5.39,5.39,0,0,1,.31,1.07c.15,1.89.19,3.8.42,5.68.14,1.12,0,2.29,1,3.31.49.52.25,1.74.33,2.65.11,1.23.2,2.46.3,3.69h.53c0-.7.06-1.4,0-2.09-.12-3-.3-6-.4-9.06a9.17,9.17,0,0,1,1-5.07c2.06,1.72,1.83,4,1.65,6.35s-.41,4.34-.52,6.51a32.72,32.72,0,0,0,.18,3.45l.5.07a13.56,13.56,0,0,0,.56-1.4c1-3.62,1.06-7.35,1.31-11.06.11-1.68.21-3.37.38-5,.07-.72,0-1.56,1.29-2-.17,5.48-.78,10.8.12,16.14.89-1.66,1.9-3.21,2-5.14A7.55,7.55,0,0,1,43,6.36c.54-.6.54-1.7.79-2.57.38-1.31.52-2.73,1.75-3.79.63.63.35,1.24.24,1.82-.54,2.76-1.14,5.5-1.64,8.27-.25,1.36-.33,2.75-.49,4.12l.41.2a18.21,18.21,0,0,0,1.53-2.31c.54-1.14.86-2.37,1.35-3.54.38-.89.89-1.73,1.3-2.6Q49,4.34,49.71,2.7A4.36,4.36,0,0,1,51.46.36c-.59,4.76-2.8,8.79-3.2,13.21l.41.24a5.47,5.47,0,0,0,1.07-1Q51.42,9.86,53,6.89c.59-1.12,1.09-2.29,1.67-3.41a4.44,4.44,0,0,1,.77-.84l.4.21c-.41,1-.86,2-1.22,3-.26.73-.81,1.34-.07,2.3.37.48-.17,1.67-.33,2.81C55.86,8.38,56.88,5.68,59,3.76c1,.61.43,1.08.18,1.54-1.21,2.22-2.43,4.43-3.63,6.65,0,.09,0,.25.14.7a41.17,41.17,0,0,0,4.61-4.2c1.49-1.37,2.47-3.43,5.1-3.9-.53,2.19-2,3.49-3.06,5s-2.26,3.22-3.63,5.16a7.56,7.56,0,0,0,2.73-2.16,30.7,30.7,0,0,1,2.67-2.35,30.74,30.74,0,0,1,2.74-1.65c.83.85.24,1.25-.09,1.64-1.13,1.32-2.3,2.61-3.64,4.12,1.49.14,2.16-1.57,3.69-.79L65,15.28c.48.21.94.62,1.26.53,1.58-.46,2.39.57,3.14,1.57,1.6,2.13,3.09,4.33,4.67,6.47,2,2.67,2.85,5.79,3.63,8.93A54,54,0,0,1,79,53.29C78.72,55.3,78.25,57.28,77.79,59.67Zm-2.81.7c.8-.39,1.34-.48,1.45-.74a15,15,0,0,0,.89-2.8,47,47,0,0,0,.15-18.21c-.65-3.57-1.77-7.06-2.72-10.57a8.62,8.62,0,0,0-.87-1.66l-.38.19c.14.6.31,1.19.43,1.79,1,5.24,2.24,10.44,2.91,15.72A31.38,31.38,0,0,1,75,60.37ZM71.92,33.45A64.92,64.92,0,0,1,72.23,48c-.46,4.87-2.33,9.34-3.89,14.25C73.54,57.23,74.94,43.89,71.92,33.45Zm4.66,33a22,22,0,0,1,3.48,1.79c1.49,1.12,2.76.86,4.46-.15C81.81,67,79.37,66.07,76.58,66.45ZM75.39,52l-2.6,8.71a2.24,2.24,0,0,0,1.43-1.29C74.87,57,76,54.59,75.39,52Zm1.45,16.81c-2.65-1.52-2.78-1.52-3.68,0ZM75.69,62c-1.74-.16-2.11.76-2.51,1.81C74.78,64.37,75,63.18,75.69,62Zm2.13-.34A2.2,2.2,0,0,0,76,63.78c0,.14.46.28.57.34Zm-7-34.31-.52.18c.22.7.43,1.41.65,2.11s.41,1.28.61,1.92l.24-.07Zm-.31,34.83c-.19,0-.35-.08-.37,0A6.36,6.36,0,0,0,69,64.08l.38.17ZM39.37,19.32l.46.27a2.23,2.23,0,0,0,.73-2.19Zm12.47-5c1.29-.43,1-1,.33-2Z"/><path d="M20.32,30.26c.56-.16,1.1-.78,1.8,0a22.54,22.54,0,0,0-1.58,2.24A65.43,65.43,0,0,0,15.62,45.7a62.78,62.78,0,0,0-1.5,6.35c-1,5.21-1.33,10.43,0,15.76l4.49.73c-.36,1.21-1,1.46-1.85,1.33a8.22,8.22,0,0,0-1.24-.2c-.77,0-.88.48-.71,1.12,1,.34,2-.55,3.28.27a6.08,6.08,0,0,1-1.38.76c-2.67.53-5.34,1.12-8,1.47-2.44.31-4.69-.68-6.93-1.5-.81-.29-.91-.76-.45-1.52,2,.2,4,.43,6,.6a7,7,0,0,0,2.09-.06c.28-.06.45-.62.81-1.17A31.21,31.21,0,0,0,0,69.86c.21-1.34,1.11-1.4,1.77-1.49,2.16-.27,4.33-.42,6.5-.58.76-.06,1.53,0,2.6,0a12.89,12.89,0,0,0,0-2.15c-.57-3.11.07-6.17.35-9.23a91.84,91.84,0,0,1,3.14-16.52c.79-2.83,2-5.55,3-8.3a6.74,6.74,0,0,1,1-1.64c.82-1.08,1.25-1,2.05.35-1.18-.1-1.51.76-1.91,1.61A74.81,74.81,0,0,0,13.55,47.3c-.38,1.68-.59,3.4-.88,5.09a1.29,1.29,0,0,0,.69-.88c.72-3,1.43-6,2.12-9A49.82,49.82,0,0,1,20.32,30.26ZM12,67.66l.74,0-.59-6.9A15.36,15.36,0,0,0,12,67.66Zm.64,1.47c-.32.52-.66.86-.6,1a1.5,1.5,0,0,0,.77.73c.14.05.67-.42.64-.5A7.41,7.41,0,0,0,12.6,69.14Z"/><path d="M25.4,18.14c.08-4.42-1.5-8.63-1.32-13.35C25.64,5.59,25,7,25.63,8c.65-1.24-.26-3,1.55-3.87.57,4.12,1,8.12,1.7,12.08s1.65,7.81,2.5,11.74l1.52-.09c-.08.87-.13,1.61-.22,2.35-.13,1.11-.73,1.24-1.54.64L29.8,33.44a43.43,43.43,0,0,1-4.11-9.93c-1-4.05-3.06-7.9-2.7-12.68,1.47,1.21,1,2.63,1.44,3.72A30.37,30.37,0,0,1,25.4,18.14Z"/><path d="M19,24.34c-.61-.31-1.22-.43-1.51-.79-.8-1-1.58-.74-2.33-.08a7.5,7.5,0,0,0-1.54,1.72c-2.24,3.79-4,7.76-4,12.28,0,2.17.12,4.37,1.79,6.09.71.74.29,1.24-.41,1.75a8.77,8.77,0,0,1-4.8-9.57A20.6,20.6,0,0,1,13.62,22c1.17-.93,2.41-1.69,4-1.17S19.74,22,19,24.34ZM9,32.48c-1.1,1.2-.87,2.64-.61,4.09q.29-2.06.57-4.13l.59-1.81-.45-.06Z"/><path d="M27.47,32.29c-2.58-2.45-3.35-5.92-4.54-9.08s-2.12-6.56-1.66-10l.52-.18c.21.34.59.68.6,1,0,4.08,1.39,7.83,2.88,11.54.78,1.94,1.75,3.8,2.62,5.71A2.79,2.79,0,0,1,28,32Z"/></g></g></svg>