<svg xmlns="http://www.w3.org/2000/svg" xmlns:xlink="http://www.w3.org/1999/xlink" version="1.1" x="0px" y="0px" viewBox="0 0 100 125" style="enable-background:new 0 0 100 100;" xml:space="preserve"><path d="M52.997,49.272c-0.27,0.1-0.44,0.33-0.38,0.51s0.33,0.25,0.61,0.16c0.28-0.1,0.46-0.33,0.39-0.51  C53.557,49.242,53.287,49.182,52.997,49.272z"/><path d="M37.907,59.452c-0.25,0.25-0.34,0.57-0.21,0.69c0.13,0.13,0.44,0.03,0.69-0.23s0.34-0.57,0.21-0.7  C38.467,59.082,38.157,59.192,37.907,59.452z"/><path d="M92.831,70.506c-0.258-0.642-0.639-1.451-1.081-2.388c-0.732-1.556-1.645-3.491-2.271-5.298  c-0.114-0.333-0.229-0.676-0.343-1.036c-0.004-0.018-0.008-0.035-0.014-0.052c-0.118-0.375-0.237-0.763-0.359-1.162  c-0.939-3.065-2.108-6.882-4.636-9.872c-1.173-1.375-1.592-2.433-1.897-3.204c-0.091-0.231-0.174-0.438-0.262-0.625  c-0.88-1.874-2.164-5.926-3.406-9.921c-0.105-0.325-0.219-1.206-0.279-1.678c-0.02-0.157-0.023-0.4-0.031-0.705  c-0.05-2.073-0.165-6.93-4.532-8.319c-2.977-0.951-6.614,1.146-9.273,2.676l-0.723,0.414c-0.532,0.297-1.08,0.592-1.479,0.736  c-2.23,0.82-9.204,4.354-12.408,6.527c-3.442,2.348-6.677,5.631-9.275,8.269c-0.492,0.501-0.96,0.975-1.396,1.41  c-0.004,0.004-0.008,0.007-0.011,0.011c-0.001,0.001-0.003,0.003-0.004,0.004C38.935,46.489,38.43,47,38.43,47  c-0.057,0.055-0.906,0.851-1.21,1.096c-0.469,0.385-1.257,0.463-2.091,0.545c-0.398,0.039-0.796,0.079-1.17,0.151  c-1.449,0.289-2.598,0.826-3.506,1.43c-0.195-0.197-0.418-0.364-0.682-0.47c-1.262-0.507-2.795,0.353-3.425,1.921  c-0.584,1.453-0.177,2.992,0.889,3.615c-0.018,0.953,0.166,1.906,0.49,2.625c-2.014,1.614-4.481,3.97-6.68,6.073  c-2.272,2.175-4.848,4.64-5.48,4.803c-0.392,0.099-1.118,0.317-1.911,0.557c-1.041,0.314-2.222,0.67-2.838,0.811  c-1.027,0.233-3.319,0.529-4.523,0.66c-0.904,0.099-1.333,0.725-1.289,1.293c0.048,0.613,0.631,1.247,1.8,1.247  c0.051,0,0.104-0.001,0.157-0.004c0.003,0,0.005-0.002,0.008-0.002c0.051,0.108,0.116,0.21,0.205,0.296  c0.167,0.161,0.472,0.348,0.984,0.348c0.024,0,0.05,0,0.076-0.001c0.687-0.022,1.422-0.129,2.132-0.232  c0.803-0.115,1.633-0.238,2.026-0.156c1.204,0.233,5.21,0.118,5.25,0.119c0.692-0.021,1.278-0.479,1.667-1.331  c0.256-0.607,0.441-1.046,1.227-1.666c0.938-0.736,8.603-5.841,12.713-8.516c1.057,0.416,1.897,0.593,2.569,0.593  c1.415,0,2.134-0.733,2.797-1.411c1.089-1.113,1.852-1.074,2.731-1.031l0.234,0.011c0.536,0.045,1.107-0.268,1.426-0.721  c0.323-0.458,0.366-1.031,0.128-1.534c0.039-0.117,0.37-0.419,0.662-0.687c0,0,0.726-0.623,0.921-0.76  c0.54-0.375,1.05-0.729,1.05-1.268c0-0.57-0.847-1.707-1.71-2.317c0.287-0.293,0.52-0.54,0.671-0.717  c0.149-0.164,0.525-0.562,1.026-1.021c0.005,0,0.01,0.004,0.015,0.004c0.41,0.023,0.773,0.122,1.194,0.237  c0.622,0.169,1.33,0.362,2.373,0.362c0.796,0,1.786-0.112,3.082-0.434c3.568-0.889,5.957-4.031,7.385-5.909  c0.288-0.38,0.531-0.7,0.729-0.925c1.067-1.208,4.795-4.229,6.344-5.468l0.051-0.041c1.534,3.642,5.64,10.98,7.272,11.74  c0.074,0.082,0.226,0.311,0.349,0.498c0.468,0.711,1.174,1.786,2.195,2.297c1.52,0.76,5.241,6.563,6.192,8.408  c0.247,0.465,0.574,1.118,0.909,1.818c1.225,2.594,1.262,3.136,1.258,3.212c-0.052,0.34-0.208,1.374-0.717,1.582  c-1.679,0.694-3.113,1.311-4.999,2.378c-0.201,0.116-0.949,0.165-1.351,0.191c-0.352,0.022-0.629,0.041-0.804,0.083  c-0.388,0.083-0.684,0.381-0.792,0.796c-0.109,0.416-0.005,0.84,0.259,1.072c0.373,0.343,1.252,0.565,2.195,0.565  c0.078,0,0.158-0.001,0.237-0.005c0.32-0.016,0.92-0.06,1.659-0.114c1.965-0.146,5.252-0.387,6.324-0.297  c0.179,0.015,4.386,0.361,5.251-0.108C93.268,72.8,93.062,71.077,92.831,70.506z M43.933,55.717  c-0.175-0.095-0.344-0.159-0.579-0.225c0,0-0.113-0.017-0.178-0.02c-0.276-0.013-0.509,0.201-0.521,0.478  c-0.008,0.168,0.016,0.27,0.138,0.366c0.08,0.063,0.469,0.191,0.513,0.205l-0.186,0.171c-0.661,0.604-1.184,1.082-0.915,1.735  c0.11,0.262,0.104,0.475-0.018,0.648c-0.146,0.206-0.417,0.319-0.562,0.297l-0.231-0.011c-0.981-0.048-2.092-0.104-3.503,1.338  c-0.815,0.832-1.484,1.506-3.598,0.83c0.406-0.263,0.736-0.476,0.969-0.624c1.801-1.133,5.716-4.748,8.084-7.107  c0.639,0.373,1.366,1.333,1.432,1.536c-0.058,0.115-0.415,0.364-0.631,0.514 M59.782,44.021c-0.21,0.238-0.469,0.578-0.776,0.981  c-1.348,1.773-3.604,4.741-6.829,5.544c-2.739,0.68-3.914,0.36-4.951,0.077c-0.16-0.044-0.318-0.082-0.477-0.12  c0.838-0.654,1.595-1.093,2.176-1.248c0.268-0.071,0.426-0.345,0.355-0.611c-0.071-0.268-0.341-0.429-0.611-0.355  c-1.146,0.304-2.435,1.293-3.312,2.067c-0.651,0.57-1.138,1.084-1.381,1.352c-0.225,0.264-0.605,0.653-1.094,1.142  c-2.236,2.246-6.374,6.092-8.153,7.21c-0.316,0.2-0.807,0.519-1.424,0.919c0,0-12.338,8.136-13.389,8.961  c-0.988,0.78-1.251,1.403-1.534,2.075c-0.146,0.316-0.397,0.697-0.771,0.708c-1.017,0.03-4.125,0.074-5.026-0.101  c-0.562-0.114-1.396,0.008-2.364,0.148c-0.684,0.099-1.391,0.201-2.022,0.222c-0.218,0.021-0.324-0.053-0.264-0.098  c0.331-0.06,2.32-0.422,3.546-0.683c0.27-0.058,0.442-0.323,0.385-0.594c-0.058-0.27-0.327-0.436-0.594-0.385  c-1.214,0.259-3.186,0.617-3.521,0.678c-0.301,0.058-0.538,0.23-0.695,0.456c-0.047-0.01-0.094-0.021-0.144-0.013  C6.301,72.373,6.011,72.157,6,72.03c-0.006-0.072,0.115-0.189,0.401-0.221c0.881-0.097,3.434-0.406,4.636-0.68  c0.65-0.147,1.848-0.509,2.905-0.828c0.774-0.233,1.484-0.448,1.868-0.545c0.848-0.218,2.709-1.97,5.926-5.049  c2.329-2.228,4.968-4.753,7.006-6.33c1.039-0.802,1.834-1.293,2.362-1.458c0.286-0.088,1.497-1.029,1.509-1.039  c1.263-1.084,2.905-2.924,3.443-3.853l0.163-0.278c0.39-0.663,1.199-2.044,1.737-2.714c0.202-0.25,0.529-0.644,0.959-1.113  c0.019-0.016,0.039-0.032,0.052-0.046c0.073-0.081,0.158-0.164,0.259-0.258l0.004-0.004c0.203-0.192,0.417-0.406,0.63-0.619  c0.002-0.002,0.003-0.003,0.005-0.005s0.003-0.003,0.004-0.004c0,0,0,0,0.001-0.001c1.448-1.363,3.77-3.134,6.628-3.849  c0.269-0.067,0.431-0.339,0.364-0.606c-0.068-0.269-0.343-0.432-0.606-0.364c-0.887,0.222-1.717,0.544-2.497,0.914  c2.029-1.989,4.291-4.053,6.638-5.655c3.153-2.138,10.003-5.611,12.19-6.415c0.208-0.076,0.447-0.188,0.693-0.31  c-0.165,1.766,0.438,3.78,0.753,4.673c0.059,0.171,0.118,0.357,0.181,0.552c0.339,1.051,0.745,2.293,1.479,2.957  C63.92,40.312,60.785,42.886,59.782,44.021z M91.892,72.412c-0.362,0.167-2.641,0.165-4.691-0.008  c-1.148-0.101-4.358,0.139-6.483,0.295c-0.729,0.055-1.319,0.099-1.629,0.113c-0.927,0.045-1.595-0.195-1.684-0.259  c-0.019-0.05,0.005-0.169,0.051-0.195c0.129-0.031,0.37-0.043,0.646-0.061c0.809-0.053,1.41-0.106,1.781-0.321  c1.833-1.037,3.238-1.641,4.884-2.321c1.032-0.422,1.244-1.828,1.324-2.357c0.046-0.297-0.039-0.875-0.827-2.66  c0.12,0.014,0.241,0.025,0.362,0.025c0.594,0,1.186-0.163,1.67-0.392c0.539-0.255,0.977-0.595,1.294-0.978  c0.641,1.815,1.532,3.715,2.256,5.25c0.435,0.923,0.811,1.72,1.058,2.336C92.077,71.31,92.066,72.272,91.892,72.412z"/></svg>