<svg xmlns="http://www.w3.org/2000/svg" viewBox="0 0 79.29 112.47500000000001" x="0px" y="0px"><title>Asset 21</title><g data-name="Layer 2"><g data-name="bus profile"><path d="M73.34,17.93l.71-1.37-.17-.14a36.4,36.4,0,0,1-3,2.54,36.1,36.1,0,0,1-3.4,1.9c.61.23.61.23,2.34,0-.48.19-1,.41-1.45.56a2.42,2.42,0,0,1-2.83-.88c-2.33-3-3.19-6.28-1.89-10a1,1,0,0,0,0-.31,38,38,0,0,0-7.53-1.47c-.25.41-.46.79-.71,1.14a3.1,3.1,0,0,1-2.16,1.62c-.56.06-.7.39-.83.86-1.08,3.79-2.07,7.61-3.32,11.35a70.44,70.44,0,0,1-3,6.8c-.62,1.36-1.3,2.69-2,4.2l2.61-.26c-.59,1.13-1.73.66-2.31,1l-1,1.61,1.14.19-.56.93,1.81.16c-.41.34-.6.58-.84.67-1.78.67-3.58,1.3-5.37,1.95a23.65,23.65,0,0,0-2.91,1.19c2.85-.55,5.6-1.57,8.7-1.71-1,1-3.09,1.85-5.75,2.22l2.05-1c-3.19.28-6,2.11-9.28,2.13,0-.77.5-.88.93-1l6.21-2.35a2.15,2.15,0,0,0,.83-.52c-2.89.57-5.59,1.81-8.47,2.41-.18-1.22-.16-1.37.76-1.77,1.47-.63,3-1.2,4.46-1.73,1-.36,2-.6,3.05-.91a3.42,3.42,0,0,0,.62-.36c-1.43-.22-4.65.77-8.13,2.46l-1.16-.56c.75-1,2-.92,3-1.61-6.94-6.27-9.72-14.45-10.79-23.38-2.14.06-2.31-.05-3.2-2.19a5.06,5.06,0,0,0-.83.21c-2,.87-4.07,1.74-6.08,2.65a2.62,2.62,0,0,0-1.59,2.89c.09.79.18,1.59.23,2.38a8.26,8.26,0,0,1-1.37,5.15A3.84,3.84,0,0,1,6,27.18a8.19,8.19,0,0,1-4.26-4.36A16.4,16.4,0,0,1,1,9.66,4.74,4.74,0,0,1,5.6,6.41c.66,0,1.33,0,2,0a7.47,7.47,0,0,1,2.49,3.45c.13.36.82.51,1.32.8l-.71,1.27,1,.5-.18,1.05A5.39,5.39,0,0,0,14.7,13c1.53-.58,3-1.25,4.57-1.8a1.92,1.92,0,0,0,1.46-1.8,14.2,14.2,0,0,1,1.82-5.09A4,4,0,0,1,23,3.61c.28-.34.58-.83,1.07-.55s0,.75-.1,1.13a2.9,2.9,0,0,0-.05.38c2.21.41,3.36,1.91,3.68,4.16,1.13-.19,2.14-.32,3.13-.52a105.75,105.75,0,0,1,19.15-2,1.45,1.45,0,0,0,1.44-.92A4.5,4.5,0,0,1,52.13,4l-.75,2.13c.9,0,1.63.08,2.36.07s1.21-.44,1-1.27c-.13-.42-.4-.79-.56-1.2a1.53,1.53,0,0,1,0-.87C55.26,3.64,55.41,5,56,6.13l1.94.2c2.1.21,4.2.4,6.3.64A1.7,1.7,0,0,0,66,6.12C66.82,5,67.88,4,68.69,2.85a11.53,11.53,0,0,1,3-2.47c.88,0,1.51,0,2.13,0s.95-.23,1.43-.31a3.24,3.24,0,0,1,3.69,2.31,9.31,9.31,0,0,1-.48,6.34,1,1,0,0,1-.34.51c-.36.21-.16.42-.18.7a5.14,5.14,0,0,1-.62,2.23C76.23,14,75,15.71,73.85,17.49A3.17,3.17,0,0,1,73.34,17.93ZM72.1,15.49l-.59,1.26c.41-.38,1-.58,1-1.23h-.48c.68-1.19,1.38-2.37,2-3.57a20,20,0,0,0,2.72-8,1.14,1.14,0,0,0-.29-.88c-.4-.28-.61.12-.78.44Q75.06,4.75,74.37,6c-.28.49-.58,1-.86,1.46.22-1.37,1.07-2.47,1.29-3.83-2.27.2-2.74,2.4-4.31,3.34l.42.79-1.51,1,.66.93-1.81,1.48.88.92a10,10,0,0,0-.92.67,1.4,1.4,0,0,0-.44.62A3.87,3.87,0,0,0,69.55,17a.87.87,0,0,0,1.09-.13C71.12,16.37,71.61,15.93,72.1,15.49ZM50.13,8a4.22,4.22,0,0,0-.92-.21c-2.48,0-5-.05-7.43.13-2.69.2-5.36.61-8,1-1.75.25-3.48.63-5.23.94a2.23,2.23,0,0,0-1.71,1.3A7.51,7.51,0,0,1,25.55,13a1.42,1.42,0,0,0-.42,1.28,45.69,45.69,0,0,0,3,12.9,17,17,0,0,0,5,7.27,6.37,6.37,0,0,1,.6.63l-.09.15-1.09-.36a26.11,26.11,0,0,0,2.25,2.27A1.13,1.13,0,0,0,36.41,37a8.16,8.16,0,0,1-2.19-3.47,13,13,0,0,1,.21-7.59,21.41,21.41,0,0,1,1.4-3.29A2.88,2.88,0,0,1,37,21.43a3.92,3.92,0,0,1,5.25,1.94,8,8,0,0,1,.55,4.44c-.17,2.61-.33,5.24-2.08,7.42-.07.09-.06.24-.12.54.46-.24.88-.12,1.1-.7a5.46,5.46,0,0,1,.95-1.57,28.34,28.34,0,0,0,4.89-9.05c1-3,1.85-6,2.72-9a4.28,4.28,0,0,0,0-1.55c0-.06-.39-.08-.59-.12.4-1.78.63-1.94,2-1.44a.64.64,0,0,0-.2-1,2.66,2.66,0,0,1-1.13-2.54A3.5,3.5,0,0,0,50.13,8ZM4.49,19.46a2.65,2.65,0,0,1,1.24-1.82c.65-.46,1.34-.86,2-1.31s.78-.75.56-1.57A8.56,8.56,0,0,0,7,12.58a5,5,0,0,0-2-1.71c-1.21-.56-2.27-.14-2.44,1.16a8.88,8.88,0,0,0,0,2.91,22.55,22.55,0,0,0,3.26,7.91,5.36,5.36,0,0,0,2.72,2.27c.68-2.3.4-4.49.3-6.68L7.32,18l.32-.81A7.37,7.37,0,0,0,4.49,19.46Zm37.46,7a14.93,14.93,0,0,0-.38-2.2c-.39-1.27-1.08-1.56-2.33-1A5.31,5.31,0,0,0,37.9,24a7.73,7.73,0,0,0-2.25,3.21,5.17,5.17,0,0,0,1.6,5.89,1.72,1.72,0,0,0,2.1.08,5.12,5.12,0,0,0,1.58-1.73A11.73,11.73,0,0,0,41.95,26.46ZM8.64,26.18a16,16,0,0,1-3.77-3.91,17.31,17.31,0,0,1-2.16-5c-.41-1.72-.6-3.49-.9-5.35a3.89,3.89,0,0,0-.52.63,4.33,4.33,0,0,0-.23,2.6A21.17,21.17,0,0,0,3.21,21.7a10.19,10.19,0,0,0,3.57,4.22A1.67,1.67,0,0,0,8.64,26.18ZM22.85,5.05a13.46,13.46,0,0,0-1.62,5.21A3.09,3.09,0,0,0,23.87,9l.37.57C25.18,8.31,24.48,6,22.85,5.05ZM56,7.55c.12.63.55.64.93.72,1.87.37,3.73.74,5.61,1.1a6.07,6.07,0,0,0,1.19.1c.39,0,.69-.17.61-.65A27.37,27.37,0,0,0,56,7.55ZM78.09,3.18l-2.17,8.18C77.64,9.18,78.81,4.89,78.09,3.18ZM24.86,5.51l.68,3.71,1.58-.32C27.16,6.9,26.79,6.35,24.86,5.51Zm14.23,29a10.63,10.63,0,0,1-2.28-.83,13.54,13.54,0,0,1-1.94-1.89A3.82,3.82,0,0,0,37,35.14,1.67,1.67,0,0,0,39.09,34.49ZM21.34,12c0,.87-.08,1.62.79,2a1.16,1.16,0,0,0,1.38-.47c.42-1-.35-1.4-1-1.95Zm31.55-1.4c.58-.7,1.41-1,1.41-2a5.21,5.21,0,0,0-2.82-.45c-.47,0-.5.39-.37.77C52.15,9.21,52.15,9.21,52.89,10.59ZM40.55,38.85a20.33,20.33,0,0,0-7.39,2.57A55,55,0,0,0,40.55,38.85ZM67.66,16.27c0,1.22.2,1.92.71,2a7,7,0,0,0,1.69,0c.15,0,.28-.24.43-.38l-.1-.13-.64.24C69.31,17.13,68.38,16.88,67.66,16.27ZM24.3,12.51c.54-.1,1,0,1.13-.23.42-.5,1.12-.89,1-1.72C25.17,10.6,25.17,10.6,24.3,12.51ZM5.85,7a2.85,2.85,0,0,0-3,1.11C3.78,7.61,5,8,5.85,7ZM51.58,7l-.08.41A12.25,12.25,0,0,0,53,7.66c.5,0,1.08.38,1.7-.41ZM65,10.56A2.81,2.81,0,0,0,65.27,13c.36-.52.36-.59,0-1.36l.77-.88a2,2,0,0,0-.4-.21A2.94,2.94,0,0,0,65,10.56Zm5.51-6.12C68.76,4,68.49,3.78,68.12,5A3.13,3.13,0,0,0,70.55,4.44ZM40.21,34.69A4,4,0,0,1,37,36.08C38.37,36.64,38.94,36.38,40.21,34.69ZM67.41,5.88c-.44.34-.79.62-.71,1.31l2.09-.83ZM64.75,7.8l0-.28-2.37-.24A2.71,2.71,0,0,0,64.75,7.8Zm3.13,11.73-.74-1.29C66.74,19.52,66.74,19.52,67.88,19.54ZM3.37,9.25,3.14,9a1.29,1.29,0,0,0-1.05,1.4Zm73.85-8c-.39-.43-.78-.8-1.42-.52C76.08,1.58,76.74,1.2,77.23,1.22ZM54.92,9l-1,1.56C54.83,10.25,55.1,9.77,54.92,9ZM9.54,23h.13V21.49H9.54ZM70.89,3.2c-.39,0-.89-1-1.16.08ZM65.34,9.39l0,.27.75,0-.06-.47ZM67,8.12c.71.12.71.12.73-.51ZM8.84,10.23l-.22.42c.07,0,.19.12.21.1a3.08,3.08,0,0,0,.29-.36ZM7.64,7.29c-.12.11-.25.18-.28.28s.16.25.2.24a1.73,1.73,0,0,0,.37-.25Z"/><path d="M30.22,76.69c.44-1.81.88-3.61,1.31-5.42.13-.54.23-1.1.34-1.65l-.25-.08L31,70.77c1.12-4.7,2.63-9.28,4.16-14.12.31.87.31.87.1,2.25.92-.78.74-2.14,1.75-2.8a2,2,0,0,1,.35,2.16c-.85,2.79-1.58,5.61-2.43,8.41C34,69.79,33,72.9,32,76c-.57,1.77-1.2,3.52-1.75,5.3-.18.6-.59,1.29.22,1.73l-2,3.56c-1-.57-1.87-1.16-3-1l2.65,1.63-.14.26a5.23,5.23,0,0,1-1.75-.69c-.72-.34-1.42-.73-2.15-1.05-2-.87-3.6-.13-3.6,2.44a28.08,28.08,0,0,0,6.36-.69c.53.49,1.89.26,1.89,1.81-.69.06-1.42.18-2.15.19-1.73,0-3.46,0-5.18,0-.77,0-1.62-.18-2.29.43-1.09-.38-2.38.43-3.36-.58,0-.08-.05-.2,0-.25a13.84,13.84,0,0,0,2-3.18,3.28,3.28,0,0,1,3.75-1.61,5.53,5.53,0,0,0,3.73-.27.84.84,0,0,1,.8.17c.6,1.09,1.47.9,2.38.63a82.16,82.16,0,0,0,4.24-12.29c1.25-5,2.85-9.88,4.29-14.81a.63.63,0,0,0-.09-.54,19.45,19.45,0,0,0-.92,2q-1.93,5.8-3.78,11.62c-.5,1.56-.89,3.15-1.37,4.71a6.82,6.82,0,0,1-.52,1.05Zm-11.88,10L20,85.49C18.9,85.19,18.6,85.9,18.34,86.67Zm.91,1.13L19,87.65l-.45.68.21.13Z"/><path d="M49.27,85.77l-1,.18c-.42-.44-.88-.78-.42-1.48.15-.23,0-.7-.1-1a21.92,21.92,0,0,0-2.53-5.52c-.07-.1-.21-.15-.49-.15l2.21,5.55-.28.12a18.91,18.91,0,0,1-2.06-4.33c-1.17-3.67-2.29-7.36-3.39-11-.58-2-1.06-3.94-1.63-5.89-.27-.93-.67-1.83-1-2.75a3,3,0,0,1-.33-2.12l1.07.64L39,56.1c1.31.62,1.08,2.12,2.1,2.87L40.79,57l.29-.1a3.75,3.75,0,0,1,.43.69c1.29,3.68,2.56,7.37,3.84,11,.49,1.42,1,2.82,1.53,4.23v0a11.44,11.44,0,0,1-.81-1.15,7.62,7.62,0,0,0-.67-1.26c.7,3.92,2.14,7.63,3,11.5-2.3-7.57-5-15-7.86-22.52a7.39,7.39,0,0,0,.49,3.27c1,2.9,2,5.8,3,8.83l-.77-.06c.18.53.31,1,.51,1.49a19.2,19.2,0,0,0,2,4.33,2.68,2.68,0,0,1,.25.61l3,7.25c.08.2.15.42.22.63Z"/><path d="M40.87,50.49c-1.93-.11-3.79.84-6,.25.85-1.06,1.88-1.17,2.71-1.61s1.64-.78,2.4-1.26l-6.49,1s-.1-.13-.27-.35c2.29-1,4.73-1.62,6.92-2.83-2.4.5-4.72,1.37-7.24,1.23a23.17,23.17,0,0,1,4.28-2.06c-1.8.15-3.49,1-5.31.89l-.09-.28a2.15,2.15,0,0,1,.54-.43c1.09-.38,2.18-.75,3.28-1.09a3.67,3.67,0,0,1,2.18-.26,3.61,3.61,0,0,0,1.56-.25l5.18-1.17c.11,0,.24,0,.53.12-1.65,1.36-3.76,1.42-5.38,2.55a21.46,21.46,0,0,1,4.44-.56c-.67,1-1.67,1.09-2.43,1.48S40,46.61,39,47c1.51.28,2.74-.84,4.19-.11-1.61,1.55-3.77,1.87-5.54,2.93,1.87.31,3.61-.59,5.47-.44.06.73-.36.94-.82,1.14L39.74,51.7c-.31.14-.6.3-1,.5,1.15.44,2.28-.5,3.42.41a9.66,9.66,0,0,1-1.26,1,1.82,1.82,0,0,0-1,1.45c0,.15-.25.39-.38.4a17.88,17.88,0,0,1-3.14-.14C37.4,54,39.13,54,40.5,53c-1.44-.18-2.73.72-4.22-.13a5.44,5.44,0,0,1,.88-.7c1.08-.51,2.19-1,3.28-1.45Z"/><path d="M49.23,85.8A5.8,5.8,0,0,0,50.7,85a4.08,4.08,0,0,1,2.89-1.32,3.65,3.65,0,0,0,.91-.21,3.65,3.65,0,0,1,4.44,2.41A3.33,3.33,0,0,0,60,87.42a9.53,9.53,0,0,1,.87,1,2.69,2.69,0,0,1-2.09.78c-1.53.08-3-.4-4.52-.24s-3,.23-4.51.28a18.08,18.08,0,0,1-2-.13c-.27-1.49,1.06-1.52,1.73-2.06,2.12.79,4.28.25,6.64.61a20,20,0,0,0-.92-2.15,2.15,2.15,0,0,0-2.85-.6c-1.18.61-2.3,1.33-3.44,2a.87.87,0,0,1-.76.06l1-1.17Zm8.65-.08c-.42-1.18-.84-1.47-2-1.27Zm-.66,1.22c.26.57.26.57.75.5Z"/><path d="M30.2,76.67c.16,1.24-.48,2.29-.61,3.46L29.23,80l1-3.35Z"/><path d="M46.88,72.91l.85,2.48c-.43-.79-1.05-1.51-.85-2.5Z"/><path d="M29.82,73.56l.45-1.19.19.07L30,73.68Z"/><path d="M23.7,84a4.24,4.24,0,0,1,.15-.59s.21,0,.33,0L24,84Z"/><path d="M29.17,81.19l-.25.93-.14,0,.24-.93Z"/><path d="M72.18,19.27l-.74.71.47-1Z"/></g></g></svg>