<svg xmlns="http://www.w3.org/2000/svg" xmlns:xlink="http://www.w3.org/1999/xlink" version="1.1" x="0px" y="0px" viewBox="0 0 100 125" enable-background="new 0 0 100 100" xml:space="preserve"><path fill="#000000" d="M74.656,44.426c-4.275-0.078-7.887,4.868-8.461,11.298l-6.797-0.671c0.016-0.086,0.027-0.169,0.027-0.249  c0-0.688-0.099-1.083-0.295-1.772c-0.197-0.688-1.083-2.165-0.1-4.132c0.984-1.968,1.279-4.724,1.478-6.593  c0.196-1.869,0.099-3.346,0.394-3.936c0.294-0.59,0.491-0.492,0.787-0.984c0.295-0.491,1.771-1.476,1.771-1.476  s-0.886-5.511-1.378-8.463c-0.492-2.952-0.787-4.526-2.756-6.298c-1.968-1.771-5.215-3.346-5.806-3.837  c-0.591-0.493-0.984-1.083-0.886-1.87c0.099-0.788,0.886-2.362,0.983-3.838c0.1-1.477,0.197-3.838-0.196-4.527  c-0.394-0.688-1.476-1.87-2.165-2.165c-0.688-0.295-1.87-0.197-1.87-0.197c-1.083,0.099-1.575,0.197-2.46,0.492  c-0.886,0.296-1.279,0-1.771,0.886c-0.492,0.886-0.689,1.378-0.492,1.968c0.196,0.59-0.295,1.279-0.197,1.575  c0.099,0.295,0.492-0.197,0.492,0.393s-0.197,1.968-0.197,1.968s0.394,0.394,0.394,0.689c0,0.295-0.098,1.28-0.098,1.28l0.295,1.083  c0,0-0.493,0.885,0.098,1.279c0.59,0.393,1.083,0.393,1.377,0.491c0.295,0.099,0.689,0,0.788,0.395  c0.098,0.393-1.181,1.574-1.181,1.574s-1.674,1.673-2.165,1.968c-0.492,0.295-2.263,1.673-3.051,2.953  c-0.788,1.279-1.477,5.116-1.575,6.494c-0.099,1.378-0.984,2.559-1.477,4.035c-0.491,1.476-2.066,6.593-1.968,8.66  c0.099,2.067-0.491,5.413-0.688,6.298c-0.197,0.886,0,1.279-0.689,1.869c-0.688,0.591-0.787,1.379-0.787,1.379  s-0.008,0.039-0.019,0.104l-2.158-0.213c-0.215-4.958-3.598-8.896-7.739-8.896c-4.28,0-7.749,4.208-7.749,9.397  c0,5.191,3.469,9.397,7.749,9.397c4.035,0,7.349-3.74,7.715-8.518l2.325,0.229c0.083,0.177,0.198,0.339,0.367,0.466  c0.787,0.59,1.377,0.886,1.771,0.886c0.394,0,1.181-0.296,1.181-0.296l0.729-0.655l1.311,0.129c0.016,0.876,0.026,1.494,0.026,1.609  c0,0.492,0.395,0.688,0.395,0.688s-0.197,2.066,0.59,3.838c0.788,1.771,1.28,2.46,1.28,3.444c0,0.983-0.197,2.559,0.295,3.346  c0.491,0.787-0.197,3.051,0.295,4.921s1.181,5.903,1.574,7.085c0.394,1.181,0.394,2.165,0.394,2.165s-0.59,0.394-0.59,0.983  c0,0.591-0.197,0.591-0.688,0.984c-0.493,0.394-0.395,0.886-0.788,1.378s-1.476,0.984-2.165,1.574  c-0.689,0.591-2.559,1.969-2.46,2.656c0.098,0.689,0.688,0.984,2.853,1.379c2.165,0.394,3.642-0.886,4.231-1.379  c0.591-0.491,1.181-0.589,1.575-0.393c0.394,0.196,1.377,0,2.362-0.492c0.984-0.492,0.886-0.787,0.984-1.279  c0.096-0.481-0.295-0.688-0.197-1.279c0.099-0.59-0.394-0.688-0.59-1.968c-0.196-1.28-0.294-1.673-0.59-1.969  c-0.295-0.295-0.59-0.492-0.59-0.492s0.59-3.738,0.689-5.216c0.099-1.476,0.984-2.853,0.394-4.526  c-0.591-1.672-0.886-2.46-1.083-3.837c-0.196-1.379,0.197-3.74,0.393-4.724c0.197-0.984,0.395-2.067,0.395-2.067  s1.377,4.33,1.968,5.412c0.591,1.083,1.771,2.264,2.264,2.854c0.492,0.59,0.295,1.476,0.492,3.542  c0.196,2.066,1.082,6.791,1.377,7.972c0.296,1.182,0.394,4.034,0.394,4.034s-0.394-0.394-0.59,0.591  c-0.197,0.984-0.984,2.559-0.984,2.559c0,0.394-0.984,2.362-1.574,3.051c-0.591,0.688-2.362,2.263-2.263,2.854  c0.098,0.591,1.181,1.574,2.754,1.574c1.575,0,3.346-0.689,4.134-1.278c0.787-0.591,1.476-1.87,1.476-1.87s0.886,0.098,1.477-0.984  c0.59-1.083,0.394-1.181-0.099-2.559c-0.492-1.377-0.099-2.755-0.492-3.051c-0.393-0.295-0.59-0.196-0.59-0.491  c0-0.296,0.099-1.082,0.197-1.575c0.098-0.491,1.181-6.199,1.082-8.955c-0.099-2.755-0.296-4.822-1.181-5.608  c-0.886-0.788-0.984-2.46-1.083-5.217c-0.099-2.755,0.197-5.412,0.394-5.805c0.196-0.395,1.083-0.788,1.083-1.182  c0-0.101,0.046-0.234,0.113-0.389l7.27,0.718c0,0.013-0.001,0.024-0.001,0.038c-0.131,7.105,3.48,12.933,8.065,13.017  c4.584,0.084,8.407-5.606,8.537-12.712C82.853,50.339,79.241,44.511,74.656,44.426z M38.811,53.02  c0.051-0.247,0.079-0.491,0.048-0.676c-0.098-0.591-0.591-1.182-0.689-1.674c-0.098-0.491,0.098-2.066,0.197-2.558  s0.984-2.263,0.984-2.263s0.086,4.213,0.144,7.238L38.811,53.02z"/></svg>